<svg xmlns="http://www.w3.org/2000/svg" xmlns:xlink="http://www.w3.org/1999/xlink" width="940" zoomAndPan="magnify" viewBox="0 0 705 591.000005" height="788" preserveAspectRatio="xMidYMid meet" version="1.2"><defs><clipPath id="33c2e6ee04"><path d="M 59.59375 72.394531 L 645.105469 72.394531 L 645.105469 517.890625 L 59.59375 517.890625 Z M 59.59375 72.394531 "/></clipPath></defs><g id="9938b15a8d"><g clip-rule="nonzero" clip-path="url(#33c2e6ee04)"><path style=" stroke:none;fill-rule:nonzero;fill:#090909;fill-opacity:1;" d="M 586.15625 180.820312 L 384.148438 351.476562 C 379.753906 354.933594 374.886719 356.664062 369.550781 356.664062 L 335.175781 356.664062 C 329.523438 356.664062 324.660156 354.933594 320.578125 351.476562 L 118.570312 180.820312 L 118.570312 450.949219 C 118.570312 453.148438 119.667969 455.035156 121.867188 456.605469 L 128.929688 458.960938 L 575.324219 458.960938 L 582.859375 456.605469 L 586.15625 450.949219 L 586.15625 180.820312 M 645.015625 450.949219 C 645.015625 469.492188 638.265625 485.203125 624.765625 498.089844 C 610.953125 511.289062 594.472656 517.890625 575.324219 517.890625 L 128.929688 517.890625 C 109.78125 517.890625 93.457031 511.289062 79.957031 498.089844 C 66.460938 485.203125 59.710938 469.492188 59.710938 450.949219 L 59.710938 139.335938 C 59.710938 120.792969 66.460938 105.078125 79.957031 92.191406 C 93.457031 78.992188 109.78125 72.394531 128.929688 72.394531 L 575.324219 72.394531 C 594.472656 72.394531 610.953125 78.992188 624.765625 92.191406 C 638.265625 105.078125 645.015625 120.792969 645.015625 139.335938 L 645.015625 450.949219 M 352.128906 298.207031 L 548.484375 131.792969 L 155.769531 131.792969 L 352.128906 298.207031 "/></g><path style=" stroke:none;fill-rule:nonzero;fill:#fc0012;fill-opacity:1;" d="M 571.355469 189.894531 L 383.199219 348.847656 C 379.109375 352.066406 374.574219 353.675781 369.605469 353.675781 L 337.589844 353.675781 C 332.324219 353.675781 327.792969 352.066406 323.992188 348.847656 L 135.839844 189.894531 L 135.839844 441.496094 C 135.839844 443.546875 136.863281 445.300781 138.910156 446.765625 L 145.488281 448.960938 L 561.265625 448.960938 L 568.285156 446.765625 L 571.355469 441.496094 L 571.355469 189.894531 M 626.179688 441.496094 C 626.179688 458.765625 619.890625 473.402344 607.320312 485.40625 C 594.453125 497.699219 579.101562 503.847656 561.265625 503.847656 L 145.488281 503.847656 C 127.652344 503.847656 112.445312 497.699219 99.875 485.40625 C 87.300781 473.402344 81.015625 458.765625 81.015625 441.496094 L 81.015625 151.253906 C 81.015625 133.984375 87.300781 119.347656 99.875 107.347656 C 112.445312 95.050781 127.652344 88.902344 145.488281 88.902344 L 561.265625 88.902344 C 579.101562 88.902344 594.453125 95.050781 607.320312 107.347656 C 619.890625 119.347656 626.179688 133.984375 626.179688 151.253906 L 626.179688 441.496094 M 353.378906 299.230469 L 536.269531 144.230469 L 170.488281 144.230469 L 353.378906 299.230469 "/></g></svg>