<svg xmlns="http://www.w3.org/2000/svg" xmlns:xlink="http://www.w3.org/1999/xlink" width="940" zoomAndPan="magnify" viewBox="0 0 705 591.000005" height="788" preserveAspectRatio="xMidYMid meet" version="1.2"><defs><clipPath id="298c5740b4"><path d="M 80 22.035156 L 625 22.035156 L 625 567.863281 L 80 567.863281 Z M 80 22.035156 "/></clipPath></defs><g id="ec03344073"><g clip-rule="nonzero" clip-path="url(#298c5740b4)"><path style=" stroke:none;fill-rule:nonzero;fill:#000000;fill-opacity:1;" d="M 492.886719 567.863281 L 213.457031 567.863281 C 139.621094 567.863281 80.257812 508.5 80.257812 434.664062 L 80.257812 155.234375 C 80.257812 81.394531 139.621094 22.035156 213.457031 22.035156 L 491.4375 22.035156 C 565.277344 22.035156 624.636719 81.394531 624.636719 155.234375 L 624.636719 433.214844 C 624.636719 507.054688 565.277344 566.414062 491.4375 566.414062 Z M 213.457031 65.46875 C 164.230469 65.46875 123.695312 106.007812 123.695312 155.234375 L 123.695312 433.214844 C 123.695312 482.441406 164.230469 522.980469 213.457031 522.980469 L 491.4375 522.980469 C 540.664062 522.980469 581.203125 482.441406 581.203125 433.214844 L 581.203125 155.234375 C 581.203125 106.007812 540.664062 65.46875 491.4375 65.46875 Z M 213.457031 65.46875 "/></g><path style=" stroke:none;fill-rule:nonzero;fill:#000000;fill-opacity:1;" d="M 353.894531 470.859375 C 258.339844 470.859375 181.605469 394.125 181.605469 298.570312 C 181.605469 203.011719 258.339844 126.277344 353.894531 126.277344 C 449.453125 126.277344 526.1875 203.011719 526.1875 298.570312 C 526.1875 394.125 449.453125 470.859375 353.894531 470.859375 Z M 353.894531 168.265625 C 281.503906 168.265625 223.59375 226.179688 223.59375 298.570312 C 223.59375 370.960938 281.503906 428.871094 353.894531 428.871094 C 426.285156 428.871094 484.199219 370.960938 484.199219 298.570312 C 484.199219 226.179688 426.285156 168.265625 353.894531 168.265625 Z M 353.894531 168.265625 "/><path style=" stroke:none;fill-rule:nonzero;fill:#000000;fill-opacity:1;" d="M 353.894531 376.75 C 310.460938 376.75 275.714844 342.003906 275.714844 298.570312 C 275.714844 255.132812 310.460938 220.386719 353.894531 220.386719 C 397.332031 220.386719 432.078125 255.132812 432.078125 298.570312 C 432.078125 342.003906 397.332031 376.75 353.894531 376.75 Z M 353.894531 263.820312 C 335.074219 263.820312 319.148438 279.746094 319.148438 298.570312 C 319.148438 317.390625 335.074219 333.316406 353.894531 333.316406 C 372.71875 333.316406 388.644531 317.390625 388.644531 298.570312 C 388.644531 279.746094 372.71875 263.820312 353.894531 263.820312 Z M 353.894531 263.820312 "/><path style=" stroke:none;fill-rule:nonzero;fill:#000000;fill-opacity:1;" d="M 540.664062 136.414062 C 540.664062 137.363281 540.617188 138.308594 540.523438 139.25 C 540.433594 140.195312 540.292969 141.132812 540.109375 142.0625 C 539.921875 142.992188 539.691406 143.910156 539.417969 144.820312 C 539.140625 145.726562 538.824219 146.617188 538.460938 147.496094 C 538.097656 148.371094 537.691406 149.226562 537.246094 150.0625 C 536.796875 150.898438 536.3125 151.710938 535.785156 152.5 C 535.257812 153.289062 534.691406 154.050781 534.089844 154.78125 C 533.488281 155.515625 532.855469 156.21875 532.183594 156.886719 C 531.511719 157.558594 530.8125 158.195312 530.078125 158.796875 C 529.34375 159.398438 528.582031 159.960938 527.796875 160.488281 C 527.007812 161.015625 526.195312 161.503906 525.359375 161.949219 C 524.523438 162.398438 523.664062 162.800781 522.789062 163.164062 C 521.914062 163.527344 521.019531 163.847656 520.113281 164.121094 C 519.207031 164.398438 518.289062 164.628906 517.355469 164.8125 C 516.425781 165 515.488281 165.136719 514.546875 165.230469 C 513.601562 165.324219 512.65625 165.371094 511.707031 165.371094 C 510.757812 165.371094 509.8125 165.324219 508.871094 165.230469 C 507.925781 165.136719 506.988281 165 506.058594 164.8125 C 505.128906 164.628906 504.210938 164.398438 503.300781 164.121094 C 502.394531 163.847656 501.503906 163.527344 500.625 163.164062 C 499.75 162.800781 498.894531 162.398438 498.058594 161.949219 C 497.222656 161.503906 496.410156 161.015625 495.621094 160.488281 C 494.832031 159.960938 494.070312 159.398438 493.339844 158.796875 C 492.605469 158.195312 491.902344 157.558594 491.234375 156.886719 C 490.5625 156.21875 489.925781 155.515625 489.324219 154.78125 C 488.722656 154.050781 488.160156 153.289062 487.632812 152.5 C 487.105469 151.710938 486.617188 150.898438 486.171875 150.0625 C 485.722656 149.226562 485.320312 148.371094 484.957031 147.496094 C 484.59375 146.617188 484.273438 145.726562 484 144.820312 C 483.722656 143.910156 483.492188 142.992188 483.308594 142.0625 C 483.125 141.132812 482.984375 140.195312 482.890625 139.25 C 482.796875 138.308594 482.75 137.363281 482.75 136.414062 C 482.75 135.464844 482.796875 134.519531 482.890625 133.574219 C 482.984375 132.632812 483.125 131.695312 483.308594 130.765625 C 483.492188 129.835938 483.722656 128.914062 484 128.007812 C 484.273438 127.101562 484.59375 126.207031 484.957031 125.332031 C 485.320312 124.457031 485.722656 123.601562 486.171875 122.761719 C 486.617188 121.925781 487.105469 121.113281 487.632812 120.324219 C 488.160156 119.539062 488.722656 118.777344 489.324219 118.042969 C 489.925781 117.3125 490.5625 116.609375 491.234375 115.9375 C 491.902344 115.269531 492.605469 114.632812 493.339844 114.03125 C 494.070312 113.429688 494.832031 112.863281 495.621094 112.335938 C 496.410156 111.808594 497.222656 111.324219 498.058594 110.875 C 498.894531 110.429688 499.75 110.023438 500.625 109.660156 C 501.503906 109.296875 502.394531 108.980469 503.300781 108.703125 C 504.210938 108.429688 505.128906 108.199219 506.058594 108.011719 C 506.988281 107.828125 507.925781 107.691406 508.871094 107.597656 C 509.8125 107.503906 510.757812 107.457031 511.707031 107.457031 C 512.65625 107.457031 513.601562 107.503906 514.546875 107.597656 C 515.488281 107.691406 516.425781 107.828125 517.355469 108.011719 C 518.289062 108.199219 519.207031 108.429688 520.113281 108.703125 C 521.019531 108.980469 521.914062 109.296875 522.789062 109.660156 C 523.664062 110.023438 524.523438 110.429688 525.359375 110.875 C 526.195312 111.324219 527.007812 111.808594 527.796875 112.335938 C 528.582031 112.863281 529.34375 113.429688 530.078125 114.03125 C 530.8125 114.632812 531.511719 115.269531 532.183594 115.9375 C 532.855469 116.609375 533.488281 117.3125 534.089844 118.042969 C 534.691406 118.777344 535.257812 119.539062 535.785156 120.324219 C 536.3125 121.113281 536.796875 121.925781 537.246094 122.761719 C 537.691406 123.601562 538.097656 124.457031 538.460938 125.332031 C 538.824219 126.207031 539.140625 127.101562 539.417969 128.007812 C 539.691406 128.914062 539.921875 129.835938 540.109375 130.765625 C 540.292969 131.695312 540.433594 132.632812 540.523438 133.574219 C 540.617188 134.519531 540.664062 135.464844 540.664062 136.414062 Z M 540.664062 136.414062 "/></g></svg>