<svg xmlns="http://www.w3.org/2000/svg" xmlns:xlink="http://www.w3.org/1999/xlink" width="940" zoomAndPan="magnify" viewBox="0 0 705 591.000005" height="788" preserveAspectRatio="xMidYMid meet" version="1.2"><defs><clipPath id="60f24bf852"><path d="M 82.378906 24.878906 L 622.964844 24.878906 L 622.964844 565.464844 L 82.378906 565.464844 Z M 82.378906 24.878906 "/></clipPath><clipPath id="e5ab45660f"><path d="M 622.964844 295.171875 C 622.964844 299.59375 622.855469 304.015625 622.636719 308.433594 C 622.421875 312.851562 622.097656 317.261719 621.664062 321.664062 C 621.230469 326.066406 620.6875 330.457031 620.039062 334.832031 C 619.390625 339.207031 618.632812 343.566406 617.769531 347.902344 C 616.90625 352.242188 615.9375 356.558594 614.863281 360.847656 C 613.789062 365.136719 612.609375 369.402344 611.324219 373.632812 C 610.039062 377.867188 608.652344 382.066406 607.164062 386.230469 C 605.671875 390.394531 604.082031 394.523438 602.390625 398.609375 C 600.695312 402.695312 598.902344 406.738281 597.011719 410.738281 C 595.121094 414.734375 593.132812 418.6875 591.046875 422.585938 C 588.960938 426.488281 586.78125 430.335938 584.507812 434.128906 C 582.234375 437.925781 579.867188 441.660156 577.410156 445.339844 C 574.953125 449.015625 572.40625 452.632812 569.773438 456.183594 C 567.136719 459.738281 564.417969 463.222656 561.609375 466.644531 C 558.804688 470.0625 555.914062 473.410156 552.945312 476.6875 C 549.972656 479.96875 546.925781 483.167969 543.796875 486.296875 C 540.667969 489.425781 537.464844 492.476562 534.1875 495.445312 C 530.910156 498.417969 527.5625 501.304688 524.144531 504.109375 C 520.722656 506.917969 517.238281 509.636719 513.683594 512.273438 C 510.132812 514.90625 506.515625 517.453125 502.835938 519.910156 C 499.160156 522.371094 495.421875 524.734375 491.628906 527.007812 C 487.835938 529.285156 483.988281 531.464844 480.085938 533.546875 C 476.183594 535.632812 472.234375 537.621094 468.234375 539.511719 C 464.238281 541.40625 460.195312 543.195312 456.109375 544.890625 C 452.019531 546.582031 447.894531 548.175781 443.730469 549.664062 C 439.566406 551.15625 435.367188 552.542969 431.132812 553.824219 C 426.898438 555.109375 422.636719 556.289062 418.347656 557.363281 C 414.054688 558.4375 409.742188 559.40625 405.402344 560.269531 C 401.0625 561.132812 396.707031 561.890625 392.332031 562.539062 C 387.957031 563.1875 383.566406 563.730469 379.164062 564.164062 C 374.761719 564.597656 370.351562 564.921875 365.933594 565.140625 C 361.515625 565.355469 357.09375 565.464844 352.671875 565.464844 C 348.246094 565.464844 343.828125 565.355469 339.410156 565.140625 C 334.992188 564.921875 330.582031 564.597656 326.179688 564.164062 C 321.777344 563.730469 317.386719 563.1875 313.011719 562.539062 C 308.636719 561.890625 304.277344 561.132812 299.941406 560.269531 C 295.601562 559.40625 291.285156 558.4375 286.996094 557.363281 C 282.703125 556.289062 278.441406 555.109375 274.210938 553.824219 C 269.976562 552.542969 265.777344 551.15625 261.613281 549.664062 C 257.449219 548.175781 253.320312 546.582031 249.234375 544.890625 C 245.148438 543.195312 241.105469 541.40625 237.105469 539.511719 C 233.105469 537.621094 229.15625 535.632812 225.257812 533.546875 C 221.355469 531.464844 217.507812 529.285156 213.714844 527.007812 C 209.917969 524.734375 206.183594 522.371094 202.503906 519.910156 C 198.828125 517.453125 195.210938 514.90625 191.65625 512.273438 C 188.105469 509.636719 184.617188 506.917969 181.199219 504.109375 C 177.78125 501.304688 174.429688 498.417969 171.152344 495.445312 C 167.875 492.476562 164.671875 489.425781 161.546875 486.296875 C 158.417969 483.167969 155.367188 479.96875 152.398438 476.6875 C 149.425781 473.410156 146.539062 470.0625 143.730469 466.644531 C 140.925781 463.222656 138.207031 459.738281 135.570312 456.183594 C 132.933594 452.632812 130.386719 449.015625 127.929688 445.339844 C 125.472656 441.660156 123.109375 437.925781 120.832031 434.128906 C 118.558594 430.335938 116.378906 426.488281 114.292969 422.585938 C 112.210938 418.6875 110.222656 414.734375 108.328125 410.738281 C 106.4375 406.738281 104.644531 402.695312 102.953125 398.609375 C 101.261719 394.523438 99.667969 390.394531 98.179688 386.230469 C 96.6875 382.066406 95.300781 377.867188 94.015625 373.632812 C 92.734375 369.402344 91.554688 365.136719 90.480469 360.847656 C 89.402344 356.558594 88.433594 352.242188 87.570312 347.902344 C 86.710938 343.566406 85.953125 339.207031 85.304688 334.832031 C 84.65625 330.457031 84.113281 326.066406 83.679688 321.664062 C 83.246094 317.261719 82.921875 312.851562 82.703125 308.433594 C 82.488281 304.015625 82.378906 299.59375 82.378906 295.171875 C 82.378906 290.75 82.488281 286.328125 82.703125 281.910156 C 82.921875 277.492188 83.246094 273.082031 83.679688 268.679688 C 84.113281 264.277344 84.65625 259.886719 85.304688 255.511719 C 85.953125 251.136719 86.710938 246.777344 87.570312 242.441406 C 88.433594 238.101562 89.402344 233.785156 90.480469 229.496094 C 91.554688 225.207031 92.734375 220.941406 94.015625 216.710938 C 95.300781 212.476562 96.6875 208.277344 98.179688 204.113281 C 99.667969 199.949219 101.261719 195.820312 102.953125 191.734375 C 104.644531 187.648438 106.4375 183.605469 108.328125 179.605469 C 110.222656 175.609375 112.210938 171.65625 114.292969 167.757812 C 116.378906 163.855469 118.558594 160.007812 120.832031 156.214844 C 123.109375 152.417969 125.472656 148.683594 127.929688 145.003906 C 130.386719 141.328125 132.933594 137.710938 135.570312 134.160156 C 138.207031 130.605469 140.925781 127.121094 143.730469 123.699219 C 146.539062 120.28125 149.425781 116.933594 152.398438 113.65625 C 155.367188 110.375 158.417969 107.175781 161.546875 104.046875 C 164.671875 100.917969 167.875 97.867188 171.152344 94.898438 C 174.429688 91.925781 177.78125 89.039062 181.199219 86.234375 C 184.617188 83.425781 188.105469 80.707031 191.65625 78.070312 C 195.210938 75.4375 198.828125 72.890625 202.503906 70.433594 C 206.183594 67.972656 209.917969 65.609375 213.714844 63.335938 C 217.507812 61.058594 221.355469 58.878906 225.257812 56.796875 C 229.15625 54.710938 233.105469 52.722656 237.105469 50.832031 C 241.105469 48.9375 245.148438 47.148438 249.234375 45.453125 C 253.320312 43.761719 257.449219 42.167969 261.613281 40.679688 C 265.777344 39.1875 269.976562 37.800781 274.210938 36.519531 C 278.441406 35.234375 282.703125 34.054688 286.996094 32.980469 C 291.285156 31.90625 295.601562 30.9375 299.941406 30.074219 C 304.277344 29.210938 308.636719 28.453125 313.011719 27.804688 C 317.386719 27.15625 321.777344 26.613281 326.179688 26.179688 C 330.582031 25.746094 334.992188 25.421875 339.410156 25.203125 C 343.828125 24.988281 348.246094 24.878906 352.671875 24.878906 C 357.09375 24.878906 361.515625 24.988281 365.933594 25.203125 C 370.351562 25.421875 374.761719 25.746094 379.164062 26.179688 C 383.566406 26.613281 387.957031 27.15625 392.332031 27.804688 C 396.707031 28.453125 401.0625 29.210938 405.402344 30.074219 C 409.742188 30.9375 414.054688 31.90625 418.347656 32.980469 C 422.636719 34.054688 426.898438 35.234375 431.132812 36.519531 C 435.367188 37.800781 439.566406 39.1875 443.730469 40.679688 C 447.894531 42.167969 452.019531 43.761719 456.109375 45.453125 C 460.195312 47.148438 464.238281 48.9375 468.234375 50.832031 C 472.234375 52.722656 476.183594 54.710938 480.085938 56.796875 C 483.988281 58.878906 487.835938 61.058594 491.628906 63.335938 C 495.421875 65.609375 499.160156 67.972656 502.835938 70.433594 C 506.515625 72.890625 510.132812 75.4375 513.683594 78.070312 C 517.238281 80.707031 520.722656 83.425781 524.144531 86.234375 C 527.5625 89.039062 530.910156 91.925781 534.1875 94.898438 C 537.464844 97.867188 540.667969 100.917969 543.796875 104.046875 C 546.925781 107.175781 549.972656 110.375 552.945312 113.65625 C 555.914062 116.933594 558.804688 120.28125 561.609375 123.699219 C 564.417969 127.121094 567.136719 130.605469 569.773438 134.160156 C 572.40625 137.710938 574.953125 141.328125 577.410156 145.003906 C 579.867188 148.683594 582.234375 152.417969 584.507812 156.214844 C 586.78125 160.007812 588.960938 163.855469 591.046875 167.757812 C 593.132812 171.65625 595.121094 175.609375 597.011719 179.605469 C 598.902344 183.605469 600.695312 187.648438 602.390625 191.734375 C 604.082031 195.820312 605.671875 199.949219 607.164062 204.113281 C 608.652344 208.277344 610.039062 212.476562 611.324219 216.710938 C 612.609375 220.941406 613.789062 225.207031 614.863281 229.496094 C 615.9375 233.785156 616.90625 238.101562 617.769531 242.441406 C 618.632812 246.777344 619.390625 251.136719 620.039062 255.511719 C 620.6875 259.886719 621.230469 264.277344 621.664062 268.679688 C 622.097656 273.082031 622.421875 277.492188 622.636719 281.910156 C 622.855469 286.328125 622.964844 290.75 622.964844 295.171875 Z M 622.964844 295.171875 "/></clipPath><linearGradient x1="0.0499176" gradientTransform="matrix(1.760864,0,0,1.760864,82.378504,24.879253)" y1="307.049876" x2="307.050584" gradientUnits="userSpaceOnUse" y2="0.050621" id="065de56669"><stop style="stop-color:#fec053;stop-opacity:1;" offset="0"/><stop style="stop-color:#fec053;stop-opacity:1;" offset="0.125"/><stop style="stop-color:#fec053;stop-opacity:1;" offset="0.140625"/><stop style="stop-color:#fec053;stop-opacity:1;" offset="0.144531"/><stop style="stop-color:#febf53;stop-opacity:1;" offset="0.148438"/><stop style="stop-color:#febd52;stop-opacity:1;" offset="0.152344"/><stop style="stop-color:#febb52;stop-opacity:1;" offset="0.15625"/><stop style="stop-color:#fdb952;stop-opacity:1;" offset="0.160156"/><stop style="stop-color:#fdb852;stop-opacity:1;" offset="0.164062"/><stop style="stop-color:#fdb652;stop-opacity:1;" offset="0.167969"/><stop style="stop-color:#fdb451;stop-opacity:1;" offset="0.171875"/><stop style="stop-color:#fdb251;stop-opacity:1;" offset="0.175781"/><stop style="stop-color:#fdb051;stop-opacity:1;" offset="0.179688"/><stop style="stop-color:#fdae51;stop-opacity:1;" offset="0.183594"/><stop style="stop-color:#fcac50;stop-opacity:1;" offset="0.1875"/><stop style="stop-color:#fcaa50;stop-opacity:1;" offset="0.191406"/><stop style="stop-color:#fca950;stop-opacity:1;" offset="0.195312"/><stop style="stop-color:#fca750;stop-opacity:1;" offset="0.199219"/><stop style="stop-color:#fca54f;stop-opacity:1;" offset="0.203125"/><stop style="stop-color:#fca34f;stop-opacity:1;" offset="0.207031"/><stop style="stop-color:#fca14f;stop-opacity:1;" offset="0.210938"/><stop style="stop-color:#fc9f4f;stop-opacity:1;" offset="0.214844"/><stop style="stop-color:#fb9d4e;stop-opacity:1;" offset="0.21875"/><stop style="stop-color:#fb9b4e;stop-opacity:1;" offset="0.222656"/><stop style="stop-color:#fb9a4e;stop-opacity:1;" offset="0.226562"/><stop style="stop-color:#fb984e;stop-opacity:1;" offset="0.230469"/><stop style="stop-color:#fb964d;stop-opacity:1;" offset="0.234375"/><stop style="stop-color:#fb944d;stop-opacity:1;" offset="0.238281"/><stop style="stop-color:#fb924d;stop-opacity:1;" offset="0.242187"/><stop style="stop-color:#fa904d;stop-opacity:1;" offset="0.246094"/><stop style="stop-color:#fa8e4c;stop-opacity:1;" offset="0.25"/><stop style="stop-color:#fa8c4c;stop-opacity:1;" offset="0.253906"/><stop style="stop-color:#fa8b4c;stop-opacity:1;" offset="0.257812"/><stop style="stop-color:#fa894c;stop-opacity:1;" offset="0.261719"/><stop style="stop-color:#fa874b;stop-opacity:1;" offset="0.265625"/><stop style="stop-color:#fa854b;stop-opacity:1;" offset="0.269531"/><stop style="stop-color:#f9834b;stop-opacity:1;" offset="0.273438"/><stop style="stop-color:#f9814b;stop-opacity:1;" offset="0.277344"/><stop style="stop-color:#f97f4a;stop-opacity:1;" offset="0.28125"/><stop style="stop-color:#f97d4a;stop-opacity:1;" offset="0.285156"/><stop style="stop-color:#f97c4a;stop-opacity:1;" offset="0.289062"/><stop style="stop-color:#f97a4a;stop-opacity:1;" offset="0.292969"/><stop style="stop-color:#f97849;stop-opacity:1;" offset="0.296875"/><stop style="stop-color:#f87649;stop-opacity:1;" offset="0.300781"/><stop style="stop-color:#f87449;stop-opacity:1;" offset="0.304687"/><stop style="stop-color:#f87249;stop-opacity:1;" offset="0.308594"/><stop style="stop-color:#f87048;stop-opacity:1;" offset="0.3125"/><stop style="stop-color:#f86e48;stop-opacity:1;" offset="0.316406"/><stop style="stop-color:#f86d48;stop-opacity:1;" offset="0.320312"/><stop style="stop-color:#f86b48;stop-opacity:1;" offset="0.324219"/><stop style="stop-color:#f76947;stop-opacity:1;" offset="0.328125"/><stop style="stop-color:#f76747;stop-opacity:1;" offset="0.332031"/><stop style="stop-color:#f76547;stop-opacity:1;" offset="0.335937"/><stop style="stop-color:#f76347;stop-opacity:1;" offset="0.339844"/><stop style="stop-color:#f76147;stop-opacity:1;" offset="0.34375"/><stop style="stop-color:#f75f46;stop-opacity:1;" offset="0.347656"/><stop style="stop-color:#f75e46;stop-opacity:1;" offset="0.351562"/><stop style="stop-color:#f65c46;stop-opacity:1;" offset="0.355469"/><stop style="stop-color:#f65a46;stop-opacity:1;" offset="0.359375"/><stop style="stop-color:#f65845;stop-opacity:1;" offset="0.363281"/><stop style="stop-color:#f65645;stop-opacity:1;" offset="0.367187"/><stop style="stop-color:#f65445;stop-opacity:1;" offset="0.371094"/><stop style="stop-color:#f65245;stop-opacity:1;" offset="0.375"/><stop style="stop-color:#f65044;stop-opacity:1;" offset="0.378906"/><stop style="stop-color:#f54e44;stop-opacity:1;" offset="0.382812"/><stop style="stop-color:#f54d44;stop-opacity:1;" offset="0.386719"/><stop style="stop-color:#f54b44;stop-opacity:1;" offset="0.390625"/><stop style="stop-color:#f54943;stop-opacity:1;" offset="0.394531"/><stop style="stop-color:#f54743;stop-opacity:1;" offset="0.398437"/><stop style="stop-color:#f54543;stop-opacity:1;" offset="0.402344"/><stop style="stop-color:#f54343;stop-opacity:1;" offset="0.40625"/><stop style="stop-color:#f44142;stop-opacity:1;" offset="0.410156"/><stop style="stop-color:#f43f42;stop-opacity:1;" offset="0.414062"/><stop style="stop-color:#f43e42;stop-opacity:1;" offset="0.417969"/><stop style="stop-color:#f43c42;stop-opacity:1;" offset="0.421875"/><stop style="stop-color:#f43a41;stop-opacity:1;" offset="0.425781"/><stop style="stop-color:#f43841;stop-opacity:1;" offset="0.429687"/><stop style="stop-color:#f43641;stop-opacity:1;" offset="0.433594"/><stop style="stop-color:#f43441;stop-opacity:1;" offset="0.4375"/><stop style="stop-color:#f33240;stop-opacity:1;" offset="0.441406"/><stop style="stop-color:#f33040;stop-opacity:1;" offset="0.445312"/><stop style="stop-color:#f32f40;stop-opacity:1;" offset="0.449219"/><stop style="stop-color:#f32d40;stop-opacity:1;" offset="0.453125"/><stop style="stop-color:#f32b3f;stop-opacity:1;" offset="0.457031"/><stop style="stop-color:#f3293f;stop-opacity:1;" offset="0.460937"/><stop style="stop-color:#f3273f;stop-opacity:1;" offset="0.464844"/><stop style="stop-color:#f2253f;stop-opacity:1;" offset="0.46875"/><stop style="stop-color:#f2233e;stop-opacity:1;" offset="0.472656"/><stop style="stop-color:#f2213e;stop-opacity:1;" offset="0.476562"/><stop style="stop-color:#f1213f;stop-opacity:1;" offset="0.480469"/><stop style="stop-color:#f02041;stop-opacity:1;" offset="0.484375"/><stop style="stop-color:#ef2043;stop-opacity:1;" offset="0.488281"/><stop style="stop-color:#ee2046;stop-opacity:1;" offset="0.492187"/><stop style="stop-color:#ec2048;stop-opacity:1;" offset="0.496094"/><stop style="stop-color:#eb204a;stop-opacity:1;" offset="0.5"/><stop style="stop-color:#ea204d;stop-opacity:1;" offset="0.503906"/><stop style="stop-color:#e8204f;stop-opacity:1;" offset="0.507812"/><stop style="stop-color:#e72052;stop-opacity:1;" offset="0.511719"/><stop style="stop-color:#e62054;stop-opacity:1;" offset="0.515625"/><stop style="stop-color:#e42057;stop-opacity:1;" offset="0.519531"/><stop style="stop-color:#e32059;stop-opacity:1;" offset="0.523437"/><stop style="stop-color:#e2205b;stop-opacity:1;" offset="0.527344"/><stop style="stop-color:#e0205e;stop-opacity:1;" offset="0.53125"/><stop style="stop-color:#df2060;stop-opacity:1;" offset="0.535156"/><stop style="stop-color:#de2063;stop-opacity:1;" offset="0.539062"/><stop style="stop-color:#dc2065;stop-opacity:1;" offset="0.542969"/><stop style="stop-color:#db2068;stop-opacity:1;" offset="0.546875"/><stop style="stop-color:#d9206a;stop-opacity:1;" offset="0.550781"/><stop style="stop-color:#d8206d;stop-opacity:1;" offset="0.554687"/><stop style="stop-color:#d7206f;stop-opacity:1;" offset="0.558594"/><stop style="stop-color:#d52071;stop-opacity:1;" offset="0.5625"/><stop style="stop-color:#d41f74;stop-opacity:1;" offset="0.566406"/><stop style="stop-color:#d31f76;stop-opacity:1;" offset="0.570312"/><stop style="stop-color:#d11f79;stop-opacity:1;" offset="0.574219"/><stop style="stop-color:#d01f7b;stop-opacity:1;" offset="0.578125"/><stop style="stop-color:#cf1f7e;stop-opacity:1;" offset="0.582031"/><stop style="stop-color:#cd1f80;stop-opacity:1;" offset="0.585938"/><stop style="stop-color:#cc1f82;stop-opacity:1;" offset="0.589844"/><stop style="stop-color:#cb1f85;stop-opacity:1;" offset="0.59375"/><stop style="stop-color:#c91f87;stop-opacity:1;" offset="0.597656"/><stop style="stop-color:#c81f8a;stop-opacity:1;" offset="0.601562"/><stop style="stop-color:#c71f8c;stop-opacity:1;" offset="0.605469"/><stop style="stop-color:#c51f8f;stop-opacity:1;" offset="0.609375"/><stop style="stop-color:#c41f91;stop-opacity:1;" offset="0.613281"/><stop style="stop-color:#c31f93;stop-opacity:1;" offset="0.617188"/><stop style="stop-color:#c11f96;stop-opacity:1;" offset="0.621094"/><stop style="stop-color:#c01f98;stop-opacity:1;" offset="0.625"/><stop style="stop-color:#be1f9b;stop-opacity:1;" offset="0.628906"/><stop style="stop-color:#bd1f9d;stop-opacity:1;" offset="0.632812"/><stop style="stop-color:#bc1fa0;stop-opacity:1;" offset="0.636719"/><stop style="stop-color:#ba1fa2;stop-opacity:1;" offset="0.640625"/><stop style="stop-color:#b91fa4;stop-opacity:1;" offset="0.644531"/><stop style="stop-color:#b81fa7;stop-opacity:1;" offset="0.648438"/><stop style="stop-color:#b620a8;stop-opacity:1;" offset="0.652344"/><stop style="stop-color:#b421a9;stop-opacity:1;" offset="0.65625"/><stop style="stop-color:#b222aa;stop-opacity:1;" offset="0.660156"/><stop style="stop-color:#b023ab;stop-opacity:1;" offset="0.664062"/><stop style="stop-color:#ae23ac;stop-opacity:1;" offset="0.667969"/><stop style="stop-color:#ac24ad;stop-opacity:1;" offset="0.671875"/><stop style="stop-color:#aa25ae;stop-opacity:1;" offset="0.675781"/><stop style="stop-color:#a926af;stop-opacity:1;" offset="0.679688"/><stop style="stop-color:#a727b0;stop-opacity:1;" offset="0.683594"/><stop style="stop-color:#a528b0;stop-opacity:1;" offset="0.6875"/><stop style="stop-color:#a329b1;stop-opacity:1;" offset="0.691406"/><stop style="stop-color:#a12ab2;stop-opacity:1;" offset="0.695312"/><stop style="stop-color:#9f2bb3;stop-opacity:1;" offset="0.699219"/><stop style="stop-color:#9d2cb4;stop-opacity:1;" offset="0.703125"/><stop style="stop-color:#9b2db5;stop-opacity:1;" offset="0.707031"/><stop style="stop-color:#992eb6;stop-opacity:1;" offset="0.710938"/><stop style="stop-color:#972fb7;stop-opacity:1;" offset="0.714844"/><stop style="stop-color:#9530b8;stop-opacity:1;" offset="0.71875"/><stop style="stop-color:#9331b8;stop-opacity:1;" offset="0.722656"/><stop style="stop-color:#9132b9;stop-opacity:1;" offset="0.726562"/><stop style="stop-color:#8f33ba;stop-opacity:1;" offset="0.730469"/><stop style="stop-color:#8e34bb;stop-opacity:1;" offset="0.734375"/><stop style="stop-color:#8c35bc;stop-opacity:1;" offset="0.738281"/><stop style="stop-color:#8a36bd;stop-opacity:1;" offset="0.742188"/><stop style="stop-color:#8837be;stop-opacity:1;" offset="0.746094"/><stop style="stop-color:#8638bf;stop-opacity:1;" offset="0.75"/><stop style="stop-color:#8439bf;stop-opacity:1;" offset="0.753906"/><stop style="stop-color:#823ac0;stop-opacity:1;" offset="0.757812"/><stop style="stop-color:#803bc1;stop-opacity:1;" offset="0.761719"/><stop style="stop-color:#7e3cc2;stop-opacity:1;" offset="0.765625"/><stop style="stop-color:#7c3cc3;stop-opacity:1;" offset="0.769531"/><stop style="stop-color:#7a3dc4;stop-opacity:1;" offset="0.773438"/><stop style="stop-color:#783ec5;stop-opacity:1;" offset="0.777344"/><stop style="stop-color:#763fc6;stop-opacity:1;" offset="0.78125"/><stop style="stop-color:#7440c7;stop-opacity:1;" offset="0.785156"/><stop style="stop-color:#7341c7;stop-opacity:1;" offset="0.789062"/><stop style="stop-color:#7142c8;stop-opacity:1;" offset="0.792969"/><stop style="stop-color:#6f43c9;stop-opacity:1;" offset="0.796875"/><stop style="stop-color:#6d44ca;stop-opacity:1;" offset="0.800781"/><stop style="stop-color:#6b45cb;stop-opacity:1;" offset="0.804688"/><stop style="stop-color:#6946cc;stop-opacity:1;" offset="0.808594"/><stop style="stop-color:#6747cd;stop-opacity:1;" offset="0.8125"/><stop style="stop-color:#6548ce;stop-opacity:1;" offset="0.816406"/><stop style="stop-color:#6349cf;stop-opacity:1;" offset="0.820312"/><stop style="stop-color:#614acf;stop-opacity:1;" offset="0.824219"/><stop style="stop-color:#5f4bd0;stop-opacity:1;" offset="0.828125"/><stop style="stop-color:#5d4cd1;stop-opacity:1;" offset="0.832031"/><stop style="stop-color:#5b4dd2;stop-opacity:1;" offset="0.835938"/><stop style="stop-color:#594ed3;stop-opacity:1;" offset="0.839844"/><stop style="stop-color:#574fd4;stop-opacity:1;" offset="0.84375"/><stop style="stop-color:#5650d5;stop-opacity:1;" offset="0.847656"/><stop style="stop-color:#5451d6;stop-opacity:1;" offset="0.851562"/><stop style="stop-color:#5351d6;stop-opacity:1;" offset="0.859375"/><stop style="stop-color:#5351d6;stop-opacity:1;" offset="0.875"/><stop style="stop-color:#5351d6;stop-opacity:1;" offset="1"/></linearGradient></defs><g id="76592b2c0b"><g clip-rule="nonzero" clip-path="url(#60f24bf852)"><g clip-rule="nonzero" clip-path="url(#e5ab45660f)"><path style=" stroke:none;fill-rule:nonzero;fill:url(#linear0);" d="M 82.378906 24.878906 L 82.378906 565.464844 L 622.964844 565.464844 L 622.964844 24.878906 Z M 82.378906 24.878906 "/></g></g><path style=" stroke:none;fill-rule:nonzero;fill:#ffffff;fill-opacity:1;" d="M 425.191406 458.292969 L 281.09375 458.292969 C 231.136719 458.292969 190.492188 417.652344 190.492188 367.691406 L 190.492188 223.59375 C 190.492188 173.636719 231.136719 132.992188 281.09375 132.992188 L 425.191406 132.992188 C 475.152344 132.992188 515.792969 173.636719 515.792969 223.59375 L 515.792969 367.691406 C 515.792969 417.652344 475.152344 458.292969 425.191406 458.292969 Z M 281.09375 155.015625 C 243.28125 155.015625 212.515625 185.78125 212.515625 223.59375 L 212.515625 367.691406 C 212.515625 405.507812 243.28125 436.273438 281.09375 436.273438 L 425.191406 436.273438 C 463.003906 436.273438 493.769531 405.507812 493.769531 367.691406 L 493.769531 223.59375 C 493.769531 185.78125 463.003906 155.015625 425.191406 155.015625 Z M 281.09375 155.015625 "/><path style=" stroke:none;fill-rule:nonzero;fill:#ffffff;fill-opacity:1;" d="M 353.148438 376.21875 C 308.722656 376.21875 272.578125 340.074219 272.578125 295.648438 C 272.578125 251.222656 308.722656 215.082031 353.148438 215.082031 C 397.574219 215.082031 433.71875 251.222656 433.71875 295.648438 C 433.71875 340.074219 397.574219 376.21875 353.148438 376.21875 Z M 353.148438 237.097656 C 320.863281 237.097656 294.601562 263.359375 294.601562 295.644531 C 294.601562 327.929688 320.871094 354.191406 353.148438 354.191406 C 385.429688 354.191406 411.695312 327.929688 411.695312 295.644531 C 411.695312 263.359375 385.433594 237.097656 353.148438 237.097656 Z M 353.148438 237.097656 "/></g></svg>