<svg xmlns="http://www.w3.org/2000/svg" xmlns:xlink="http://www.w3.org/1999/xlink" width="940" zoomAndPan="magnify" viewBox="0 0 705 591.000005" height="788" preserveAspectRatio="xMidYMid meet" version="1.2"><defs><clipPath id="1dffe0a3ea"><path d="M 99.4375 41.941406 L 605.582031 41.941406 L 605.582031 548.082031 L 99.4375 548.082031 Z M 99.4375 41.941406 "/></clipPath></defs><g id="5f515a819b"><g clip-rule="nonzero" clip-path="url(#1dffe0a3ea)"><path style=" stroke:none;fill-rule:nonzero;fill:#000000;fill-opacity:1;" d="M 352.511719 41.941406 C 212.511719 41.941406 99.4375 155.785156 99.4375 295.011719 C 99.4375 434.238281 212.511719 548.082031 352.511719 548.082031 C 492.507812 548.082031 605.582031 435.007812 605.582031 295.011719 C 605.582031 155.015625 492.507812 41.941406 352.511719 41.941406 Z M 352.511719 518.082031 C 229.4375 518.082031 129.4375 418.085938 129.4375 295.011719 C 129.4375 171.9375 229.4375 71.9375 352.511719 71.9375 C 475.585938 71.9375 575.582031 171.9375 575.582031 295.011719 C 575.582031 418.085938 475.585938 518.082031 352.511719 518.082031 Z M 352.511719 518.082031 "/></g><path style=" stroke:none;fill-rule:nonzero;fill:#000000;fill-opacity:1;" d="M 445.585938 304.242188 C 450.96875 304.242188 454.816406 299.625 454.816406 295.011719 C 454.816406 289.628906 450.199219 285.78125 445.585938 285.78125 L 372.511719 285.78125 C 370.203125 281.164062 366.355469 276.550781 360.972656 275.011719 L 360.972656 155.785156 C 360.972656 150.398438 357.125 146.554688 351.742188 146.554688 C 346.355469 146.554688 342.511719 150.398438 342.511719 155.785156 L 342.511719 274.242188 C 334.820312 278.089844 329.433594 285.78125 329.433594 295.011719 C 329.433594 307.320312 339.433594 317.320312 351.742188 317.320312 C 360.972656 317.320312 368.664062 311.933594 371.742188 304.242188 Z M 445.585938 304.242188 "/><path style=" stroke:none;fill-rule:nonzero;fill:#000000;fill-opacity:1;" d="M 354.050781 118.859375 C 357.894531 118.859375 360.972656 115.785156 360.972656 111.9375 L 360.972656 89.632812 C 360.972656 85.785156 357.894531 82.707031 354.050781 82.707031 C 350.203125 82.707031 347.125 85.785156 347.125 89.632812 L 347.125 111.9375 C 347.125 115.785156 350.203125 118.859375 354.050781 118.859375 Z M 354.050781 118.859375 "/><path style=" stroke:none;fill-rule:nonzero;fill:#000000;fill-opacity:1;" d="M 257.128906 111.9375 C 254.820312 108.863281 250.972656 107.324219 247.898438 109.628906 C 244.820312 111.9375 243.28125 115.785156 245.589844 118.859375 L 257.128906 138.089844 C 259.433594 141.167969 263.28125 142.707031 266.359375 140.398438 C 269.433594 138.089844 270.972656 134.246094 268.667969 131.167969 Z M 257.128906 111.9375 "/><path style=" stroke:none;fill-rule:nonzero;fill:#000000;fill-opacity:1;" d="M 197.898438 195.78125 L 178.667969 184.246094 C 175.589844 181.9375 170.976562 183.476562 169.4375 186.550781 C 167.128906 189.628906 168.667969 194.246094 171.746094 195.78125 L 190.976562 207.320312 C 194.050781 209.628906 198.667969 208.089844 200.207031 205.011719 C 202.511719 201.9375 201.746094 197.320312 197.898438 195.78125 Z M 197.898438 195.78125 "/><path style=" stroke:none;fill-rule:nonzero;fill:#000000;fill-opacity:1;" d="M 176.359375 293.472656 C 176.359375 289.628906 173.285156 286.550781 169.4375 286.550781 L 147.128906 286.550781 C 143.285156 286.550781 140.207031 289.628906 140.207031 293.472656 C 140.207031 297.320312 143.285156 300.394531 147.128906 300.394531 L 169.4375 300.394531 C 173.285156 300.394531 176.359375 297.320312 176.359375 293.472656 Z M 176.359375 293.472656 "/><path style=" stroke:none;fill-rule:nonzero;fill:#000000;fill-opacity:1;" d="M 189.4375 378.855469 L 170.207031 390.394531 C 167.128906 392.703125 165.589844 396.546875 167.898438 399.625 C 170.207031 402.703125 174.050781 404.238281 177.128906 401.933594 L 196.359375 390.394531 C 199.4375 388.085938 200.976562 384.242188 198.667969 381.164062 C 197.128906 378.085938 192.515625 377.316406 189.4375 378.855469 Z M 189.4375 378.855469 "/><path style=" stroke:none;fill-rule:nonzero;fill:#000000;fill-opacity:1;" d="M 262.511719 446.546875 C 259.433594 444.238281 254.820312 445.777344 253.28125 448.855469 L 241.742188 468.085938 C 239.4375 471.160156 240.972656 475.777344 244.050781 477.316406 C 247.128906 479.625 251.742188 478.085938 253.28125 475.007812 L 264.820312 455.777344 C 267.128906 452.699219 266.359375 448.855469 262.511719 446.546875 Z M 262.511719 446.546875 "/><path style=" stroke:none;fill-rule:nonzero;fill:#000000;fill-opacity:1;" d="M 350.972656 471.160156 C 347.125 471.160156 344.050781 474.238281 344.050781 478.085938 L 344.050781 500.390625 C 344.050781 504.238281 347.125 507.316406 350.972656 507.316406 C 354.816406 507.316406 357.894531 504.238281 357.894531 500.390625 L 357.894531 478.085938 C 357.894531 474.238281 354.816406 471.160156 350.972656 471.160156 Z M 350.972656 471.160156 "/><path style=" stroke:none;fill-rule:nonzero;fill:#000000;fill-opacity:1;" d="M 448.664062 451.164062 C 446.355469 448.085938 442.507812 446.546875 439.433594 448.855469 C 436.355469 451.164062 434.816406 455.007812 437.125 458.085938 L 448.664062 477.316406 C 450.96875 480.390625 454.816406 481.929688 457.894531 479.625 C 460.96875 477.316406 462.507812 473.46875 460.199219 470.390625 Z M 448.664062 451.164062 "/><path style=" stroke:none;fill-rule:nonzero;fill:#000000;fill-opacity:1;" d="M 533.277344 393.472656 L 514.046875 381.933594 C 510.96875 379.625 506.355469 381.164062 504.816406 384.242188 C 502.507812 387.316406 504.046875 391.933594 507.121094 393.472656 L 526.351562 405.007812 C 529.429688 407.316406 534.046875 405.777344 535.582031 402.703125 C 537.890625 399.625 536.351562 395.007812 533.277344 393.472656 Z M 533.277344 393.472656 "/><path style=" stroke:none;fill-rule:nonzero;fill:#000000;fill-opacity:1;" d="M 558.660156 289.628906 L 536.351562 289.628906 C 532.507812 289.628906 529.429688 292.703125 529.429688 296.550781 C 529.429688 300.394531 532.507812 303.472656 536.351562 303.472656 L 558.660156 303.472656 C 562.507812 303.472656 565.582031 300.394531 565.582031 296.550781 C 565.582031 292.703125 562.507812 289.628906 558.660156 289.628906 Z M 558.660156 289.628906 "/><path style=" stroke:none;fill-rule:nonzero;fill:#000000;fill-opacity:1;" d="M 515.585938 211.167969 L 534.816406 199.628906 C 537.890625 197.320312 539.429688 193.476562 537.121094 190.398438 C 534.816406 187.320312 530.96875 185.78125 527.890625 188.089844 L 508.660156 199.628906 C 505.585938 201.9375 504.046875 205.78125 506.355469 208.859375 C 507.890625 211.9375 512.507812 212.707031 515.585938 211.167969 Z M 515.585938 211.167969 "/><path style=" stroke:none;fill-rule:nonzero;fill:#000000;fill-opacity:1;" d="M 460.199219 111.9375 C 457.125 109.628906 452.507812 111.167969 450.96875 114.246094 L 439.433594 133.476562 C 437.125 136.554688 438.664062 141.167969 441.738281 142.707031 C 444.816406 145.015625 449.433594 143.476562 450.96875 140.398438 L 462.507812 121.167969 C 464.816406 118.09375 464.046875 113.476562 460.199219 111.9375 Z M 460.199219 111.9375 "/></g></svg>