<svg xmlns="http://www.w3.org/2000/svg" xmlns:xlink="http://www.w3.org/1999/xlink" width="940" zoomAndPan="magnify" viewBox="0 0 705 591.000005" height="788" preserveAspectRatio="xMidYMid meet" version="1.2"><defs><clipPath id="864e1c3b71"><path d="M 97 33.042969 L 431 33.042969 L 431 557.15625 L 97 557.15625 Z M 97 33.042969 "/></clipPath></defs><g id="c3afaa1f97"><path style=" stroke:none;fill-rule:nonzero;fill:#000000;fill-opacity:1;" d="M 427.355469 125.132812 C 418.925781 96.316406 412.929688 67.144531 429.390625 34.648438 C 431.582031 34.484375 449.554688 34.828125 450.203125 34.890625 C 454.050781 35.253906 457.925781 35.796875 461.714844 36.496094 C 533.421875 49.714844 592.125 119.972656 602.1875 158.167969 C 605.449219 170.703125 605.863281 177.203125 606.761719 187.445312 C 610.339844 230.15625 581.332031 302.738281 534.847656 324.148438 C 559.082031 304.324219 599.726562 200.742188 481.035156 141.117188 C 449.996094 125.523438 427.574219 121.105469 427.355469 125.132812 Z M 427.355469 125.132812 "/><path style=" stroke:none;fill-rule:evenodd;fill:#000000;fill-opacity:1;" d="M 339.730469 35.308594 L 429.082031 34.984375 C 425.847656 88.398438 428.753906 395.621094 428.753906 395.621094 C 428.109375 446.117188 406.421875 483.671875 380.195312 508.59375 C 377.933594 510.863281 375.671875 513.128906 373.078125 515.066406 C 339.410156 543.558594 306.390625 556.832031 261.070312 556.507812 C 216.398438 555.863281 182.730469 539.027344 154.246094 514.425781 C 132.882812 495.976562 115.722656 472.015625 106.011719 438.992188 C 84.96875 366.484375 112.164062 295.910156 172.375 254.796875 C 173.347656 253.824219 174.636719 252.851562 175.933594 252.207031 C 203.449219 233.105469 246.183594 221.773438 285.996094 228.25 L 285.996094 319.542969 C 258.480469 312.417969 233.878906 318.570312 215.75 333.78125 C 215.429688 333.78125 215.429688 334.113281 215.101562 334.433594 C 197.625 349.324219 187.585938 371.339844 188.882812 396.265625 C 192.121094 440.941406 229.023438 468.777344 269.164062 466.839844 C 269.164062 466.839844 269.488281 466.839844 269.488281 466.839844 C 308.335938 462.953125 340.382812 431.230469 339.410156 388.496094 Z M 339.730469 35.308594 "/><g clip-rule="nonzero" clip-path="url(#864e1c3b71)"><path style="fill:none;stroke-width:0.17;stroke-linecap:round;stroke-linejoin:miter;stroke:#000000;stroke-opacity:1;stroke-miterlimit:1.5;" d="M 21545.698653 20747.499924 L 21573.300446 20747.399771 C 21572.301308 20763.89952 21573.199084 20858.801432 21573.199084 20858.801432 C 21572.99998 20874.399812 21566.300446 20886.000557 21558.198739 20893.698992 C 21557.500066 20894.400056 21556.801394 20895.099914 21556.000152 20895.698413 C 21545.599704 20904.499727 21535.399566 20908.599928 21521.399566 20908.499776 C 21507.599876 20908.300678 21497.199427 20903.100012 21488.400255 20895.500522 C 21481.800875 20889.801509 21476.499892 20882.39991 21473.500065 20872.198881 C 21466.999634 20849.801021 21475.400599 20828.000453 21494.000496 20815.300449 C 21494.300962 20814.999993 21494.699169 20814.699537 21495.099789 20814.500439 C 21503.599703 20808.599915 21516.800876 20805.09942 21529.099445 20807.100047 L 21529.099445 20835.300693 C 21520.599531 20833.099761 21512.999807 20835.000237 21507.399565 20839.698937 C 21507.300617 20839.698937 21507.300617 20839.801502 21507.199255 20839.900447 C 21501.800531 20844.500202 21498.699341 20851.300888 21499.099962 20859.000529 C 21500.100307 20872.800999 21511.499893 20881.399596 21523.899824 20880.801097 C 21523.899824 20880.801097 21523.999979 20880.801097 21523.999979 20880.801097 C 21536.000497 20879.600479 21545.90017 20869.801265 21545.599704 20856.6005 Z M 21545.698653 20747.499924 " transform="matrix(3.237165,0,0,3.237265,-69407.253686,-67129.850859)"/></g></g></svg>