<svg xmlns="http://www.w3.org/2000/svg" xmlns:xlink="http://www.w3.org/1999/xlink" width="940" zoomAndPan="magnify" viewBox="0 0 705 591.000005" height="788" preserveAspectRatio="xMidYMid meet" version="1.2"><defs><clipPath id="33539ffd4c"><path d="M 117 19.949219 L 583 19.949219 L 583 548 L 117 548 Z M 117 19.949219 "/></clipPath><clipPath id="c3f7224c4b"><path d="M 140 42 L 583 42 L 583 548 L 140 548 Z M 140 42 "/></clipPath><clipPath id="bfa66b6f1b"><path d="M 360.910156 20.277344 L 451.394531 19.953125 C 449.753906 82.441406 572.351562 199.902344 582.1875 213.3125 C 531.710938 219.535156 484.5 223.460938 451.394531 195.972656 L 451.054688 384.4375 C 450.40625 435.46875 428.445312 473.425781 401.886719 498.613281 C 399.59375 500.910156 397.304688 503.195312 394.675781 505.15625 C 360.585938 533.953125 327.148438 547.367188 281.25 547.039062 C 236.011719 546.386719 201.914062 529.371094 173.074219 504.503906 C 151.441406 485.859375 134.066406 461.644531 124.226562 428.269531 C 102.917969 354.988281 130.457031 283.65625 191.433594 242.109375 C 192.414062 241.121094 193.722656 240.140625 195.035156 239.488281 C 222.902344 220.1875 266.179688 208.730469 306.492188 215.277344 L 306.492188 307.550781 C 278.628906 300.347656 253.71875 306.5625 235.359375 321.941406 C 235.03125 321.941406 235.03125 322.269531 234.703125 322.589844 C 217 337.640625 206.832031 359.894531 208.152344 385.089844 C 211.421875 430.238281 248.800781 458.375 289.449219 456.414062 C 289.449219 456.414062 289.777344 456.414062 289.777344 456.414062 C 329.117188 452.480469 361.566406 420.421875 360.585938 377.234375 Z M 360.910156 20.277344 "/></clipPath></defs><g id="5acb8068c7"><path style=" stroke:none;fill-rule:evenodd;fill:#fe2c55;fill-opacity:1;" d="M 381.199219 43.1875 L 471.683594 42.863281 C 470.042969 105.355469 592.640625 222.8125 602.476562 236.226562 C 552 242.441406 504.789062 246.367188 471.683594 218.882812 L 471.347656 407.34375 C 470.695312 458.382812 448.738281 496.335938 422.175781 521.523438 C 419.886719 523.816406 417.59375 526.109375 414.96875 528.070312 C 380.875 556.863281 347.4375 570.277344 301.542969 569.949219 C 256.304688 569.300781 222.207031 552.28125 193.363281 527.417969 C 171.730469 508.769531 154.355469 484.554688 144.519531 451.179688 C 123.210938 377.898438 150.746094 306.570312 211.722656 265.019531 C 212.707031 264.035156 214.011719 263.050781 215.328125 262.402344 C 243.191406 243.097656 286.46875 231.644531 326.785156 238.1875 L 326.785156 330.457031 C 298.921875 323.257812 274.007812 329.472656 255.648438 344.847656 C 255.324219 344.847656 255.324219 345.179688 254.992188 345.503906 C 237.292969 360.554688 227.125 382.804688 228.441406 407.996094 C 231.71875 453.152344 269.089844 481.285156 309.738281 479.324219 C 309.738281 479.324219 310.066406 479.324219 310.066406 479.324219 C 349.40625 475.394531 381.859375 443.335938 380.875 400.144531 Z M 381.199219 43.1875 "/><g clip-rule="nonzero" clip-path="url(#33539ffd4c)"><path style=" stroke:none;fill-rule:evenodd;fill:#25f4ee;fill-opacity:1;" d="M 360.910156 20.277344 L 451.394531 19.953125 C 449.753906 82.445312 572.351562 199.902344 582.183594 213.316406 C 531.707031 219.53125 484.5 223.457031 451.394531 195.972656 L 451.058594 384.433594 C 450.40625 435.472656 428.445312 473.425781 401.886719 498.613281 C 399.59375 500.910156 397.304688 503.199219 394.675781 505.160156 C 360.585938 533.953125 327.148438 547.367188 281.253906 547.039062 C 236.011719 546.390625 201.917969 529.375 173.074219 504.507812 C 151.441406 485.859375 134.0625 461.648438 124.226562 428.269531 C 102.921875 354.988281 130.457031 283.660156 191.429688 242.109375 C 192.417969 241.125 193.722656 240.140625 195.035156 239.492188 C 222.902344 220.1875 266.175781 208.734375 306.496094 215.277344 L 306.496094 307.546875 C 278.628906 300.347656 253.714844 306.5625 235.359375 321.9375 C 235.035156 321.9375 235.035156 322.269531 234.699219 322.59375 C 217.003906 337.644531 206.835938 359.894531 208.148438 385.085938 C 211.425781 430.242188 248.796875 458.375 289.449219 456.414062 C 289.449219 456.414062 289.777344 456.414062 289.777344 456.414062 C 329.113281 452.484375 361.566406 420.425781 360.585938 377.234375 Z M 360.910156 20.277344 "/></g><g clip-rule="nonzero" clip-path="url(#c3f7224c4b)"><g clip-rule="evenodd" clip-path="url(#bfa66b6f1b)"><path style=" stroke:none;fill-rule:evenodd;fill:#000000;fill-opacity:1;" d="M 384.628906 43.195312 L 475.113281 42.867188 C 473.472656 105.359375 596.070312 222.820312 605.90625 236.234375 C 555.425781 242.449219 508.21875 246.375 475.113281 218.890625 L 474.777344 407.351562 C 474.125 458.390625 452.164062 496.34375 425.605469 521.53125 C 423.3125 523.824219 421.023438 526.117188 418.398438 528.074219 C 384.304688 556.871094 350.867188 570.285156 304.972656 569.957031 C 259.734375 569.308594 225.636719 552.289062 196.792969 527.425781 C 175.160156 508.777344 157.78125 484.5625 147.949219 451.1875 C 126.640625 377.90625 154.175781 306.578125 215.148438 265.027344 C 216.136719 264.042969 217.441406 263.058594 218.757812 262.40625 C 246.621094 243.105469 289.894531 231.652344 330.214844 238.195312 L 330.214844 330.464844 C 302.351562 323.261719 277.4375 329.480469 259.078125 344.855469 C 258.753906 344.855469 258.753906 345.1875 258.417969 345.511719 C 240.722656 360.5625 230.554688 382.8125 231.867188 408.003906 C 235.148438 453.15625 272.519531 481.292969 313.167969 479.332031 C 313.167969 479.332031 313.496094 479.332031 313.496094 479.332031 C 352.832031 475.402344 385.289062 443.34375 384.304688 400.152344 Z M 384.628906 43.195312 "/></g></g></g></svg>