<svg xmlns="http://www.w3.org/2000/svg" xmlns:xlink="http://www.w3.org/1999/xlink" width="940" zoomAndPan="magnify" viewBox="0 0 705 591.000005" height="788" preserveAspectRatio="xMidYMid meet" version="1.2"><defs><clipPath id="5128ec5322"><path d="M 59.59375 2.097656 L 645.105469 2.097656 L 645.105469 587.605469 L 59.59375 587.605469 Z M 59.59375 2.097656 "/></clipPath></defs><g id="0116fc1b8b"><g clip-rule="nonzero" clip-path="url(#5128ec5322)"><path style=" stroke:none;fill-rule:nonzero;fill:#000000;fill-opacity:1;" d="M 352.351562 2.097656 C 190.636719 2.097656 59.59375 133.140625 59.59375 294.851562 C 59.59375 456.5625 190.636719 587.605469 352.351562 587.605469 C 514.0625 587.605469 645.105469 456.5625 645.105469 294.851562 C 644.851562 133.140625 513.808594 2.097656 352.351562 2.097656 Z M 523.1875 228.949219 C 523.1875 228.949219 528.257812 340.980469 443.089844 410.433594 C 315.597656 514.101562 177.964844 429.949219 177.964844 429.949219 C 177.964844 429.949219 211.421875 430.457031 241.078125 422.597656 C 270.480469 414.742188 291.773438 395.476562 291.773438 395.476562 C 291.773438 395.476562 259.582031 388.886719 242.851562 376.722656 C 226.125 364.554688 219.535156 341.234375 219.535156 341.234375 C 219.535156 341.234375 230.6875 342.25 237.53125 341.996094 C 244.625 341.742188 252.992188 338.449219 252.992188 338.449219 C 252.992188 338.449219 229.925781 335.660156 208.382812 311.578125 C 191.398438 292.570312 192.664062 260.886719 192.664062 260.886719 C 192.664062 260.886719 202.804688 266.96875 208.128906 268.238281 C 213.449219 269.757812 223.84375 269.757812 223.84375 269.757812 C 223.84375 269.757812 203.566406 257.84375 194.695312 226.667969 C 185.824219 195.746094 202.804688 164.316406 202.804688 164.316406 C 202.804688 164.316406 232.96875 200.816406 277.578125 224.132812 C 322.1875 247.453125 364.261719 246.691406 364.261719 246.691406 C 364.261719 246.691406 358.179688 228.1875 368.824219 200.816406 C 379.472656 173.441406 403.550781 153.667969 440.304688 150.882812 C 477.054688 147.839844 500.628906 175.722656 500.628906 175.722656 C 500.628906 175.722656 512.035156 173.695312 524.960938 168.878906 C 537.886719 164.316406 550.816406 158.230469 550.816406 158.230469 C 550.816406 158.230469 546.253906 172.171875 537.382812 183.070312 C 528.511719 193.972656 518.625 200.5625 518.625 200.5625 C 518.625 200.5625 530.285156 199.800781 541.945312 196.503906 C 553.601562 193.210938 559.941406 189.914062 559.941406 189.914062 C 546.507812 212.222656 523.1875 228.949219 523.1875 228.949219 Z M 523.1875 228.949219 "/></g></g></svg>