<svg xmlns="http://www.w3.org/2000/svg" xmlns:xlink="http://www.w3.org/1999/xlink" width="940" zoomAndPan="magnify" viewBox="0 0 705 591.000005" height="788" preserveAspectRatio="xMidYMid meet" version="1.2"><defs><clipPath id="96656d1570"><path d="M 77.226562 19.039062 L 627.546875 19.039062 L 627.546875 570.855469 L 77.226562 570.855469 Z M 77.226562 19.039062 "/></clipPath></defs><g id="395db64cb8"><g clip-rule="nonzero" clip-path="url(#96656d1570)"><path style=" stroke:none;fill-rule:nonzero;fill:#000000;fill-opacity:1;" d="M 627.542969 294.863281 C 627.542969 299.371094 627.429688 303.875 627.210938 308.375 C 626.988281 312.875 626.660156 317.367188 626.21875 321.851562 C 625.777344 326.339844 625.222656 330.808594 624.5625 335.265625 C 623.902344 339.722656 623.132812 344.164062 622.253906 348.582031 C 621.375 353 620.390625 357.398438 619.292969 361.769531 C 618.199219 366.140625 617 370.480469 615.695312 374.792969 C 614.386719 379.105469 612.972656 383.382812 611.457031 387.625 C 609.941406 391.867188 608.320312 396.074219 606.597656 400.234375 C 604.871094 404.398438 603.050781 408.515625 601.125 412.589844 C 599.199219 416.664062 597.175781 420.6875 595.050781 424.664062 C 592.929688 428.636719 590.710938 432.554688 588.394531 436.421875 C 586.078125 440.289062 583.671875 444.09375 581.167969 447.839844 C 578.667969 451.585938 576.074219 455.269531 573.394531 458.890625 C 570.710938 462.511719 567.941406 466.0625 565.085938 469.546875 C 562.226562 473.027344 559.289062 476.441406 556.261719 479.777344 C 553.238281 483.117188 550.136719 486.378906 546.953125 489.566406 C 543.765625 492.753906 540.507812 495.859375 537.171875 498.886719 C 533.832031 501.914062 530.425781 504.855469 526.945312 507.714844 C 523.460938 510.570312 519.914062 513.34375 516.296875 516.027344 C 512.679688 518.710938 509 521.304688 505.253906 523.808594 C 501.511719 526.3125 497.707031 528.722656 493.84375 531.039062 C 489.980469 533.355469 486.066406 535.574219 482.09375 537.703125 C 478.121094 539.824219 474.101562 541.851562 470.03125 543.777344 C 465.960938 545.703125 461.84375 547.527344 457.683594 549.253906 C 453.523438 550.980469 449.324219 552.601562 445.082031 554.121094 C 440.84375 555.636719 436.570312 557.050781 432.261719 558.359375 C 427.949219 559.667969 423.613281 560.867188 419.246094 561.964844 C 414.875 563.054688 410.484375 564.042969 406.066406 564.921875 C 401.648438 565.800781 397.214844 566.574219 392.761719 567.234375 C 388.308594 567.894531 383.839844 568.445312 379.359375 568.886719 C 374.878906 569.332031 370.386719 569.664062 365.890625 569.882812 C 361.390625 570.105469 356.890625 570.214844 352.386719 570.214844 C 347.882812 570.214844 343.382812 570.105469 338.886719 569.882812 C 334.390625 569.664062 329.898438 569.332031 325.417969 568.890625 C 320.9375 568.449219 316.46875 567.898438 312.015625 567.234375 C 307.558594 566.574219 303.125 565.804688 298.707031 564.921875 C 294.289062 564.042969 289.898438 563.058594 285.53125 561.964844 C 281.160156 560.867188 276.824219 559.667969 272.515625 558.359375 C 268.207031 557.050781 263.929688 555.636719 259.691406 554.121094 C 255.449219 552.601562 251.25 550.980469 247.089844 549.253906 C 242.929688 547.527344 238.8125 545.703125 234.742188 543.777344 C 230.671875 541.851562 226.652344 539.824219 222.679688 537.703125 C 218.707031 535.574219 214.792969 533.355469 210.929688 531.039062 C 207.066406 528.722656 203.261719 526.3125 199.519531 523.808594 C 195.773438 521.304688 192.09375 518.710938 188.476562 516.027344 C 184.859375 513.34375 181.3125 510.570312 177.832031 507.714844 C 174.351562 504.855469 170.941406 501.914062 167.605469 498.886719 C 164.265625 495.859375 161.007812 492.753906 157.824219 489.566406 C 154.636719 486.378906 151.535156 483.117188 148.511719 479.777344 C 145.488281 476.441406 142.546875 473.027344 139.6875 469.546875 C 136.832031 466.0625 134.0625 462.511719 131.378906 458.890625 C 128.695312 455.269531 126.105469 451.585938 123.605469 447.839844 C 121.101562 444.09375 118.695312 440.289062 116.378906 436.421875 C 114.0625 432.554688 111.84375 428.636719 109.722656 424.664062 C 107.597656 420.6875 105.574219 416.664062 103.652344 412.589844 C 101.722656 408.515625 99.898438 404.398438 98.175781 400.234375 C 96.453125 396.074219 94.832031 391.867188 93.316406 387.625 C 91.800781 383.382812 90.386719 379.105469 89.082031 374.792969 C 87.773438 370.480469 86.574219 366.140625 85.476562 361.769531 C 84.386719 357.398438 83.398438 353.003906 82.519531 348.585938 C 81.640625 344.164062 80.871094 339.722656 80.210938 335.265625 C 79.550781 330.808594 79 326.339844 78.558594 321.851562 C 78.117188 317.367188 77.785156 312.875 77.566406 308.375 C 77.34375 303.875 77.234375 299.371094 77.234375 294.863281 C 77.234375 290.359375 77.34375 285.855469 77.566406 281.355469 C 77.785156 276.851562 78.117188 272.359375 78.558594 267.875 C 79 263.390625 79.550781 258.917969 80.210938 254.460938 C 80.871094 250.003906 81.640625 245.566406 82.519531 241.144531 C 83.398438 236.726562 84.386719 232.328125 85.476562 227.960938 C 86.574219 223.589844 87.773438 219.246094 89.082031 214.933594 C 90.386719 210.621094 91.800781 206.34375 93.316406 202.101562 C 94.832031 197.859375 96.453125 193.652344 98.175781 189.488281 C 99.898438 185.328125 101.722656 181.207031 103.652344 177.136719 C 105.574219 173.0625 107.597656 169.039062 109.722656 165.066406 C 111.84375 161.089844 114.0625 157.167969 116.378906 153.304688 C 118.695312 149.441406 121.101562 145.636719 123.605469 141.886719 C 126.105469 138.140625 128.695312 134.457031 131.378906 130.835938 C 134.0625 127.21875 136.832031 123.664062 139.6875 120.183594 C 142.546875 116.699219 145.488281 113.289062 148.511719 109.949219 C 151.535156 106.613281 154.636719 103.347656 157.824219 100.164062 C 161.007812 96.976562 164.265625 93.867188 167.605469 90.84375 C 170.941406 87.816406 174.347656 84.875 177.832031 82.015625 C 181.3125 79.15625 184.859375 76.386719 188.476562 73.699219 C 192.09375 71.015625 195.773438 68.421875 199.519531 65.917969 C 203.261719 63.414062 207.066406 61.003906 210.929688 58.6875 C 214.792969 56.371094 218.707031 54.148438 222.679688 52.027344 C 226.652344 49.902344 230.671875 47.875 234.742188 45.949219 C 238.8125 44.023438 242.929688 42.199219 247.089844 40.472656 C 251.25 38.75 255.449219 37.128906 259.691406 35.609375 C 263.929688 34.09375 268.203125 32.679688 272.515625 31.371094 C 276.824219 30.066406 281.160156 28.863281 285.527344 27.765625 C 289.898438 26.671875 294.289062 25.6875 298.707031 24.804688 C 303.125 23.925781 307.558594 23.15625 312.011719 22.496094 C 316.46875 21.835938 320.9375 21.285156 325.417969 20.839844 C 329.898438 20.402344 334.390625 20.070312 338.886719 19.847656 C 343.382812 19.625 347.882812 19.515625 352.386719 19.515625 C 356.890625 19.515625 361.390625 19.625 365.890625 19.847656 C 370.386719 20.070312 374.878906 20.402344 379.359375 20.839844 C 383.839844 21.285156 388.308594 21.835938 392.761719 22.496094 C 397.214844 23.15625 401.648438 23.925781 406.066406 24.804688 C 410.484375 25.683594 414.875 26.671875 419.242188 27.765625 C 423.613281 28.859375 427.949219 30.0625 432.261719 31.371094 C 436.570312 32.679688 440.84375 34.09375 445.082031 35.609375 C 449.324219 37.128906 453.523438 38.75 457.683594 40.472656 C 461.84375 42.199219 465.960938 44.023438 470.03125 45.949219 C 474.101562 47.875 478.121094 49.902344 482.09375 52.027344 C 486.066406 54.148438 489.980469 56.371094 493.84375 58.6875 C 497.707031 61.003906 501.511719 63.414062 505.253906 65.917969 C 508.996094 68.421875 512.679688 71.015625 516.296875 73.699219 C 519.914062 76.382812 523.460938 79.15625 526.941406 82.015625 C 530.425781 84.871094 533.832031 87.816406 537.167969 90.84375 C 540.503906 93.867188 543.765625 96.972656 546.949219 100.160156 C 550.132812 103.347656 553.238281 106.613281 556.261719 109.949219 C 559.285156 113.289062 562.226562 116.699219 565.082031 120.179688 C 567.941406 123.664062 570.710938 127.21875 573.394531 130.835938 C 576.074219 134.457031 578.667969 138.140625 581.167969 141.886719 C 583.671875 145.632812 586.078125 149.441406 588.394531 153.304688 C 590.710938 157.167969 592.929688 161.089844 595.050781 165.0625 C 597.171875 169.039062 599.195312 173.0625 601.121094 177.136719 C 603.046875 181.207031 604.871094 185.328125 606.59375 189.488281 C 608.320312 193.652344 609.941406 197.859375 611.457031 202.101562 C 612.972656 206.34375 614.386719 210.621094 615.695312 214.933594 C 617 219.246094 618.199219 223.585938 619.292969 227.957031 C 620.390625 232.328125 621.375 236.726562 622.253906 241.144531 C 623.132812 245.566406 623.902344 250.003906 624.5625 254.460938 C 625.222656 258.917969 625.777344 263.390625 626.21875 267.875 C 626.660156 272.359375 626.988281 276.851562 627.210938 281.355469 C 627.429688 285.855469 627.542969 290.359375 627.542969 294.863281 Z M 627.542969 294.863281 "/></g><path style="fill-rule:evenodd;fill:#ffffff;fill-opacity:1;stroke-width:2.14;stroke-linecap:round;stroke-linejoin:round;stroke:#ffffff;stroke-opacity:1;stroke-miterlimit:1.5;" d="M 30640.401175 9422.35016 L 30685.69918 9422.031212 L 30795.698077 9582.119716 L 30750.00011 9581.71984 Z M 30640.401175 9422.35016 " transform="matrix(1.640784,0,0,1.641133,-50049.362399,-15302.531024)"/><path style="fill-rule:evenodd;fill:#ffffff;fill-opacity:1;stroke-width:2.14;stroke-linecap:round;stroke-linejoin:round;stroke:#ffffff;stroke-opacity:1;stroke-miterlimit:1.5;" d="M 30776.799902 9422.031212 L 30790.900921 9422.031212 L 30653.999861 9582.119716 L 30640.401175 9582.119716 Z M 30776.799902 9422.031212 " transform="matrix(1.640784,0,0,1.641133,-50049.362399,-15302.531024)"/><path style=" stroke:none;fill-rule:evenodd;fill:#000000;fill-opacity:1;" d="M 255.578125 180.675781 L 290.03125 180.875 L 449.351562 409.058594 L 414.894531 409.007812 Z M 255.578125 180.675781 "/><path style=" stroke:none;fill-rule:evenodd;fill:#000000;fill-opacity:1;" d="M 255.578125 180.675781 L 290.03125 180.875 L 449.351562 409.058594 L 414.894531 409.007812 Z M 258.199219 182.070312 C 258.199219 182.070312 415.554688 407.628906 415.554688 407.628906 C 415.554688 407.628906 446.726562 407.675781 446.726562 407.675781 L 289.210938 182.253906 Z M 258.199219 182.070312 "/></g></svg>