<svg xmlns="http://www.w3.org/2000/svg" xmlns:xlink="http://www.w3.org/1999/xlink" width="940" zoomAndPan="magnify" viewBox="0 0 705 591.000005" height="788" preserveAspectRatio="xMidYMid meet" version="1.2"><defs><clipPath id="ea28035520"><path d="M 177.027344 29.632812 L 528.183594 29.632812 L 528.183594 560.484375 L 177.027344 560.484375 Z M 177.027344 29.632812 "/></clipPath></defs><g id="5d6d9e317b"><g clip-rule="nonzero" clip-path="url(#ea28035520)"><path style=" stroke:none;fill-rule:nonzero;fill:#ea0000;fill-opacity:1;" d="M 476.476562 81 C 510.945312 115.171875 528.179688 156.519531 528.179688 205.046875 C 528.179688 243.523438 502.757812 308.273438 451.917969 399.296875 C 427.789062 442.652344 403.375 483.140625 378.671875 520.753906 L 352.386719 560.378906 L 326.535156 520.753906 C 301.832031 483.140625 277.273438 442.652344 252.859375 399.296875 C 202.304688 307.984375 177.027344 243.234375 177.027344 205.046875 C 177.027344 156.519531 194.261719 115.171875 228.730469 81 C 262.910156 46.832031 304.132812 29.746094 352.386719 29.746094 C 400.933594 29.746094 442.292969 46.832031 476.476562 81 M 352.386719 112.875 C 327.398438 112.875 306 121.773438 288.1875 139.578125 C 270.378906 157.378906 261.476562 178.773438 261.476562 203.753906 C 261.476562 229.019531 270.378906 250.558594 288.1875 268.359375 C 306 286.164062 327.398438 295.0625 352.386719 295.0625 C 377.664062 295.0625 399.207031 286.164062 417.015625 268.359375 C 434.828125 250.558594 443.730469 229.019531 443.730469 203.753906 C 443.730469 178.773438 434.828125 157.378906 417.015625 139.578125 C 399.207031 121.773438 377.664062 112.875 352.386719 112.875 "/></g></g></svg>