<svg xmlns="http://www.w3.org/2000/svg" xmlns:xlink="http://www.w3.org/1999/xlink" width="940" zoomAndPan="magnify" viewBox="0 0 705 591.000005" height="788" preserveAspectRatio="xMidYMid meet" version="1.2"><defs><clipPath id="07437d259c"><path d="M 91.863281 27.679688 L 612.980469 27.679688 L 612.980469 555 L 91.863281 555 Z M 91.863281 27.679688 "/></clipPath></defs><g id="b4c88cd17d"><g clip-rule="nonzero" clip-path="url(#07437d259c)"><path style=" stroke:none;fill-rule:nonzero;fill:#278d46;fill-opacity:1;" d="M 612.960938 288.328125 C 612.960938 432.230469 496.328125 548.890625 352.453125 548.890625 C 341.960938 548.90625 331.507812 548.289062 321.089844 547.035156 C 310.671875 545.78125 300.371094 543.902344 290.179688 541.398438 C 279.992188 538.894531 269.992188 535.785156 260.179688 532.066406 C 250.367188 528.347656 240.816406 524.050781 231.523438 519.171875 C 231.421875 519.21875 231.320312 519.261719 231.214844 519.304688 L 152.691406 551.941406 C 128.117188 562.15625 103.335938 537.839844 113.074219 513.074219 L 141.386719 441.078125 C 137.390625 435.570312 133.617188 429.914062 130.066406 424.109375 C 126.515625 418.304688 123.199219 412.371094 120.113281 406.304688 C 117.03125 400.238281 114.1875 394.0625 111.589844 387.773438 C 108.992188 381.484375 106.648438 375.101562 104.550781 368.625 C 102.457031 362.152344 100.617188 355.605469 99.039062 348.988281 C 97.457031 342.367188 96.140625 335.699219 95.085938 328.976562 C 94.03125 322.253906 93.242188 315.5 92.714844 308.714844 C 92.191406 301.929688 91.9375 295.132812 91.945312 288.328125 C 91.945312 144.425781 208.582031 27.769531 352.453125 27.769531 C 496.328125 27.769531 612.960938 144.425781 612.960938 288.328125 Z M 612.960938 288.328125 "/></g><path style=" stroke:none;fill-rule:nonzero;fill:#ffffff;fill-opacity:1;" d="M 579.160156 288.328125 C 579.160156 292.039062 579.070312 295.75 578.886719 299.457031 C 578.707031 303.160156 578.433594 306.863281 578.070312 310.554688 C 577.707031 314.246094 577.253906 317.929688 576.707031 321.601562 C 576.164062 325.269531 575.527344 328.925781 574.804688 332.566406 C 574.082031 336.207031 573.269531 339.824219 572.367188 343.425781 C 571.464844 347.023438 570.476562 350.601562 569.398438 354.152344 C 568.324219 357.703125 567.160156 361.226562 565.910156 364.71875 C 564.660156 368.214844 563.324219 371.675781 561.90625 375.105469 C 560.484375 378.53125 558.980469 381.921875 557.394531 385.277344 C 555.808594 388.632812 554.140625 391.945312 552.390625 395.21875 C 550.644531 398.492188 548.816406 401.71875 546.90625 404.902344 C 545 408.085938 543.015625 411.21875 540.953125 414.304688 C 538.894531 417.390625 536.757812 420.425781 534.546875 423.40625 C 532.335938 426.386719 530.054688 429.3125 527.703125 432.179688 C 525.347656 435.046875 522.925781 437.855469 520.433594 440.605469 C 517.941406 443.355469 515.382812 446.042969 512.761719 448.667969 C 510.136719 451.292969 507.449219 453.851562 504.703125 456.34375 C 501.953125 458.835938 499.144531 461.257812 496.277344 463.613281 C 493.40625 465.964844 490.484375 468.25 487.503906 470.457031 C 484.523438 472.667969 481.492188 474.804688 478.40625 476.867188 C 475.320312 478.929688 472.1875 480.914062 469.003906 482.820312 C 465.824219 484.730469 462.597656 486.558594 459.324219 488.308594 C 456.050781 490.054688 452.738281 491.726562 449.382812 493.3125 C 446.03125 494.898438 442.640625 496.402344 439.210938 497.820312 C 435.785156 499.242188 432.324219 500.578125 428.828125 501.828125 C 425.335938 503.078125 421.816406 504.242188 418.265625 505.316406 C 414.714844 506.394531 411.140625 507.386719 407.539062 508.285156 C 403.941406 509.1875 400.320312 510 396.683594 510.726562 C 393.042969 511.449219 389.390625 512.082031 385.71875 512.628906 C 382.050781 513.171875 378.367188 513.625 374.675781 513.988281 C 370.984375 514.355469 367.285156 514.625 363.578125 514.808594 C 359.875 514.992188 356.164062 515.082031 352.453125 515.082031 C 348.746094 515.082031 345.035156 514.992188 341.332031 514.808594 C 337.625 514.625 333.925781 514.355469 330.234375 513.988281 C 326.542969 513.625 322.859375 513.171875 319.191406 512.628906 C 315.519531 512.082031 311.867188 511.449219 308.226562 510.726562 C 304.585938 510 300.96875 509.1875 297.371094 508.285156 C 293.769531 507.382812 290.195312 506.394531 286.644531 505.316406 C 283.09375 504.242188 279.574219 503.078125 276.078125 501.828125 C 272.585938 500.578125 269.125 499.242188 265.699219 497.820312 C 262.269531 496.402344 258.878906 494.898438 255.523438 493.3125 C 252.171875 491.726562 248.859375 490.054688 245.585938 488.308594 C 242.3125 486.558594 239.085938 484.730469 235.90625 482.820312 C 232.722656 480.914062 229.589844 478.929688 226.503906 476.867188 C 223.417969 474.804688 220.386719 472.667969 217.40625 470.457031 C 214.425781 468.25 211.5 465.964844 208.632812 463.613281 C 205.765625 461.257812 202.957031 458.835938 200.207031 456.34375 C 197.457031 453.851562 194.773438 451.292969 192.148438 448.667969 C 189.527344 446.042969 186.96875 443.355469 184.476562 440.605469 C 181.984375 437.855469 179.5625 435.046875 177.207031 432.179688 C 174.855469 429.3125 172.574219 426.386719 170.363281 423.40625 C 168.152344 420.425781 166.015625 417.390625 163.957031 414.304688 C 161.894531 411.21875 159.910156 408.085938 158.003906 404.902344 C 156.09375 401.71875 154.265625 398.492188 152.515625 395.21875 C 150.769531 391.945312 149.101562 388.632812 147.515625 385.277344 C 145.929688 381.921875 144.425781 378.53125 143.003906 375.105469 C 141.585938 371.675781 140.25 368.214844 139 364.71875 C 137.75 361.226562 136.585938 357.703125 135.511719 354.152344 C 134.433594 350.601562 133.445312 347.023438 132.542969 343.425781 C 131.640625 339.824219 130.828125 336.207031 130.105469 332.566406 C 129.378906 328.925781 128.746094 325.269531 128.203125 321.601562 C 127.65625 317.929688 127.203125 314.246094 126.839844 310.554688 C 126.476562 306.863281 126.203125 303.160156 126.019531 299.457031 C 125.839844 295.75 125.75 292.039062 125.75 288.328125 C 125.75 284.617188 125.839844 280.910156 126.019531 277.203125 C 126.203125 273.496094 126.476562 269.796875 126.839844 266.101562 C 127.203125 262.410156 127.65625 258.726562 128.203125 255.058594 C 128.746094 251.386719 129.378906 247.730469 130.105469 244.089844 C 130.828125 240.453125 131.640625 236.832031 132.542969 233.234375 C 133.445312 229.632812 134.433594 226.058594 135.511719 222.507812 C 136.585938 218.953125 137.75 215.433594 139 211.9375 C 140.25 208.445312 141.585938 204.984375 143.003906 201.554688 C 144.425781 198.125 145.929688 194.734375 147.515625 191.378906 C 149.101562 188.023438 150.769531 184.710938 152.515625 181.4375 C 154.265625 178.164062 156.09375 174.9375 158.003906 171.753906 C 159.910156 168.570312 161.894531 165.4375 163.957031 162.351562 C 166.015625 159.265625 168.152344 156.234375 170.363281 153.253906 C 172.574219 150.273438 174.855469 147.347656 177.207031 144.476562 C 179.5625 141.609375 181.984375 138.800781 184.476562 136.050781 C 186.96875 133.300781 189.527344 130.613281 192.148438 127.992188 C 194.773438 125.367188 197.457031 122.808594 200.207031 120.316406 C 202.957031 117.824219 205.765625 115.402344 208.632812 113.046875 C 211.5 110.691406 214.425781 108.410156 217.40625 106.199219 C 220.386719 103.988281 223.417969 101.851562 226.503906 99.789062 C 229.589844 97.730469 232.722656 95.746094 235.90625 93.835938 C 239.085938 91.929688 242.3125 90.101562 245.585938 88.351562 C 248.859375 86.601562 252.171875 84.933594 255.523438 83.347656 C 258.878906 81.761719 262.269531 80.257812 265.699219 78.835938 C 269.125 77.417969 272.585938 76.082031 276.078125 74.832031 C 279.574219 73.582031 283.09375 72.417969 286.644531 71.339844 C 290.195312 70.261719 293.769531 69.273438 297.371094 68.371094 C 300.96875 67.46875 304.585938 66.65625 308.226562 65.933594 C 311.867188 65.207031 315.519531 64.574219 319.191406 64.03125 C 322.859375 63.484375 326.542969 63.03125 330.234375 62.667969 C 333.925781 62.304688 337.625 62.03125 341.332031 61.847656 C 345.035156 61.667969 348.746094 61.574219 352.453125 61.574219 C 356.164062 61.574219 359.875 61.667969 363.578125 61.847656 C 367.285156 62.03125 370.984375 62.304688 374.675781 62.667969 C 378.367188 63.03125 382.050781 63.484375 385.71875 64.03125 C 389.390625 64.574219 393.042969 65.207031 396.683594 65.933594 C 400.320312 66.65625 403.941406 67.46875 407.539062 68.371094 C 411.140625 69.273438 414.714844 70.261719 418.265625 71.339844 C 421.816406 72.417969 425.335938 73.582031 428.828125 74.832031 C 432.324219 76.082031 435.785156 77.417969 439.210938 78.835938 C 442.640625 80.257812 446.03125 81.761719 449.382812 83.347656 C 452.738281 84.933594 456.050781 86.601562 459.324219 88.351562 C 462.597656 90.101562 465.824219 91.929688 469.003906 93.835938 C 472.1875 95.746094 475.320312 97.730469 478.40625 99.789062 C 481.492188 101.851562 484.523438 103.988281 487.503906 106.199219 C 490.484375 108.410156 493.40625 110.691406 496.277344 113.046875 C 499.144531 115.402344 501.953125 117.824219 504.703125 120.316406 C 507.449219 122.808594 510.136719 125.367188 512.761719 127.992188 C 515.382812 130.613281 517.941406 133.300781 520.433594 136.050781 C 522.925781 138.800781 525.347656 141.609375 527.703125 144.476562 C 530.054688 147.347656 532.335938 150.273438 534.546875 153.253906 C 536.757812 156.234375 538.894531 159.265625 540.953125 162.351562 C 543.015625 165.4375 545 168.570312 546.90625 171.753906 C 548.816406 174.9375 550.644531 178.164062 552.390625 181.4375 C 554.140625 184.710938 555.808594 188.023438 557.394531 191.378906 C 558.980469 194.734375 560.484375 198.125 561.90625 201.554688 C 563.324219 204.984375 564.660156 208.445312 565.910156 211.9375 C 567.160156 215.433594 568.324219 218.953125 569.398438 222.507812 C 570.476562 226.058594 571.464844 229.632812 572.367188 233.234375 C 573.269531 236.832031 574.082031 240.453125 574.804688 244.089844 C 575.527344 247.730469 576.164062 251.386719 576.707031 255.058594 C 577.253906 258.726562 577.707031 262.410156 578.070312 266.101562 C 578.433594 269.796875 578.707031 273.496094 578.886719 277.203125 C 579.070312 280.910156 579.160156 284.617188 579.160156 288.328125 Z M 579.160156 288.328125 "/><path style=" stroke:none;fill-rule:nonzero;fill:#278d46;fill-opacity:1;" d="M 547.410156 288.328125 C 547.410156 291.519531 547.332031 294.710938 547.175781 297.898438 C 547.019531 301.085938 546.78125 304.265625 546.46875 307.441406 C 546.15625 310.617188 545.765625 313.785156 545.300781 316.941406 C 544.832031 320.097656 544.285156 323.242188 543.664062 326.371094 C 543.039062 329.5 542.339844 332.613281 541.566406 335.707031 C 540.792969 338.804688 539.941406 341.878906 539.015625 344.933594 C 538.089844 347.988281 537.085938 351.015625 536.011719 354.019531 C 534.9375 357.023438 533.789062 360 532.570312 362.949219 C 531.347656 365.898438 530.054688 368.816406 528.691406 371.699219 C 527.328125 374.585938 525.894531 377.433594 524.390625 380.25 C 522.886719 383.0625 521.3125 385.839844 519.671875 388.574219 C 518.03125 391.3125 516.324219 394.007812 514.554688 396.660156 C 512.78125 399.316406 510.945312 401.921875 509.042969 404.488281 C 507.144531 407.050781 505.179688 409.566406 503.15625 412.03125 C 501.132812 414.5 499.050781 416.914062 496.90625 419.277344 C 494.765625 421.644531 492.5625 423.953125 490.308594 426.210938 C 488.050781 428.46875 485.742188 430.667969 483.378906 432.808594 C 481.015625 434.953125 478.597656 437.035156 476.132812 439.0625 C 473.667969 441.085938 471.152344 443.046875 468.589844 444.949219 C 466.027344 446.851562 463.417969 448.6875 460.765625 450.460938 C 458.113281 452.234375 455.417969 453.941406 452.679688 455.582031 C 449.945312 457.222656 447.167969 458.792969 444.355469 460.296875 C 441.542969 461.800781 438.691406 463.238281 435.808594 464.601562 C 432.925781 465.964844 430.007812 467.257812 427.0625 468.480469 C 424.113281 469.699219 421.136719 470.847656 418.132812 471.925781 C 415.128906 473 412.101562 474 409.046875 474.925781 C 405.992188 475.851562 402.917969 476.703125 399.824219 477.480469 C 396.730469 478.253906 393.617188 478.953125 390.488281 479.574219 C 387.359375 480.199219 384.214844 480.746094 381.0625 481.210938 C 377.90625 481.679688 374.738281 482.070312 371.5625 482.382812 C 368.386719 482.695312 365.207031 482.929688 362.019531 483.089844 C 358.835938 483.246094 355.644531 483.324219 352.453125 483.324219 C 349.265625 483.324219 346.074219 483.246094 342.890625 483.089844 C 339.703125 482.929688 336.519531 482.695312 333.347656 482.382812 C 330.171875 482.070312 327.003906 481.679688 323.847656 481.210938 C 320.691406 480.746094 317.550781 480.199219 314.421875 479.574219 C 311.292969 478.953125 308.179688 478.253906 305.085938 477.480469 C 301.988281 476.703125 298.914062 475.851562 295.863281 474.925781 C 292.808594 474 289.78125 473 286.777344 471.925781 C 283.773438 470.847656 280.796875 469.699219 277.847656 468.480469 C 274.902344 467.257812 271.984375 465.964844 269.101562 464.601562 C 266.21875 463.238281 263.367188 461.800781 260.554688 460.296875 C 257.742188 458.792969 254.964844 457.222656 252.226562 455.582031 C 249.492188 453.941406 246.796875 452.234375 244.144531 450.460938 C 241.492188 448.6875 238.882812 446.851562 236.320312 444.949219 C 233.757812 443.046875 231.242188 441.085938 228.777344 439.0625 C 226.3125 437.035156 223.894531 434.953125 221.53125 432.808594 C 219.167969 430.667969 216.859375 428.46875 214.601562 426.210938 C 212.34375 423.953125 210.144531 421.644531 208.003906 419.277344 C 205.859375 416.914062 203.777344 414.5 201.753906 412.03125 C 199.730469 409.566406 197.765625 407.050781 195.867188 404.488281 C 193.964844 401.921875 192.128906 399.316406 190.355469 396.660156 C 188.582031 394.007812 186.878906 391.3125 185.238281 388.574219 C 183.597656 385.839844 182.023438 383.0625 180.519531 380.25 C 179.015625 377.433594 177.582031 374.585938 176.21875 371.699219 C 174.855469 368.816406 173.5625 365.898438 172.339844 362.949219 C 171.121094 360 169.972656 357.023438 168.898438 354.019531 C 167.820312 351.015625 166.820312 347.988281 165.894531 344.933594 C 164.96875 341.878906 164.117188 338.804688 163.34375 335.707031 C 162.566406 332.613281 161.871094 329.5 161.246094 326.371094 C 160.625 323.242188 160.078125 320.097656 159.609375 316.941406 C 159.144531 313.785156 158.753906 310.617188 158.441406 307.441406 C 158.125 304.265625 157.890625 301.085938 157.734375 297.898438 C 157.578125 294.710938 157.5 291.519531 157.5 288.328125 C 157.5 285.136719 157.578125 281.949219 157.734375 278.761719 C 157.890625 275.574219 158.125 272.390625 158.441406 269.214844 C 158.753906 266.039062 159.144531 262.875 159.609375 259.71875 C 160.078125 256.5625 160.625 253.417969 161.246094 250.289062 C 161.871094 247.15625 162.566406 244.042969 163.34375 240.949219 C 164.117188 237.855469 164.96875 234.777344 165.894531 231.726562 C 166.820312 228.671875 167.820312 225.640625 168.898438 222.636719 C 169.972656 219.632812 171.121094 216.65625 172.339844 213.707031 C 173.5625 210.757812 174.855469 207.84375 176.21875 204.957031 C 177.582031 202.074219 179.015625 199.222656 180.519531 196.410156 C 182.023438 193.59375 183.597656 190.820312 185.238281 188.082031 C 186.878906 185.34375 188.582031 182.648438 190.355469 179.996094 C 192.128906 177.34375 193.964844 174.734375 195.867188 172.171875 C 197.765625 169.609375 199.730469 167.09375 201.753906 164.625 C 203.777344 162.160156 205.859375 159.742188 208.003906 157.378906 C 210.144531 155.015625 212.34375 152.703125 214.601562 150.449219 C 216.859375 148.191406 219.167969 145.992188 221.53125 143.847656 C 223.894531 141.703125 226.3125 139.621094 228.777344 137.597656 C 231.242188 135.570312 233.757812 133.609375 236.320312 131.707031 C 238.882812 129.808594 241.492188 127.96875 244.144531 126.199219 C 246.796875 124.425781 249.492188 122.71875 252.226562 121.078125 C 254.964844 119.4375 257.742188 117.863281 260.554688 116.359375 C 263.367188 114.855469 266.21875 113.421875 269.101562 112.054688 C 271.984375 110.691406 274.902344 109.398438 277.847656 108.179688 C 280.796875 106.957031 283.773438 105.808594 286.777344 104.734375 C 289.78125 103.660156 292.808594 102.65625 295.863281 101.730469 C 298.914062 100.804688 301.988281 99.953125 305.085938 99.179688 C 308.179688 98.402344 311.292969 97.703125 314.421875 97.082031 C 317.550781 96.460938 320.691406 95.914062 323.847656 95.445312 C 327.003906 94.976562 330.171875 94.585938 333.347656 94.273438 C 336.519531 93.960938 339.703125 93.726562 342.890625 93.570312 C 346.074219 93.414062 349.265625 93.335938 352.453125 93.335938 C 355.644531 93.335938 358.835938 93.414062 362.019531 93.570312 C 365.207031 93.726562 368.386719 93.960938 371.5625 94.273438 C 374.738281 94.585938 377.90625 94.976562 381.0625 95.445312 C 384.214844 95.914062 387.359375 96.460938 390.488281 97.082031 C 393.617188 97.703125 396.730469 98.402344 399.824219 99.179688 C 402.917969 99.953125 405.992188 100.804688 409.046875 101.730469 C 412.101562 102.65625 415.128906 103.660156 418.132812 104.734375 C 421.136719 105.808594 424.113281 106.957031 427.0625 108.179688 C 430.007812 109.398438 432.925781 110.691406 435.808594 112.054688 C 438.691406 113.421875 441.542969 114.855469 444.355469 116.359375 C 447.167969 117.863281 449.945312 119.4375 452.679688 121.078125 C 455.417969 122.71875 458.113281 124.425781 460.765625 126.199219 C 463.417969 127.96875 466.027344 129.808594 468.589844 131.707031 C 471.152344 133.609375 473.667969 135.570312 476.132812 137.597656 C 478.597656 139.621094 481.015625 141.703125 483.378906 143.847656 C 485.742188 145.992188 488.050781 148.191406 490.308594 150.449219 C 492.5625 152.703125 494.765625 155.015625 496.90625 157.378906 C 499.050781 159.742188 501.132812 162.160156 503.15625 164.625 C 505.179688 167.09375 507.144531 169.609375 509.042969 172.171875 C 510.945312 174.734375 512.78125 177.34375 514.554688 179.996094 C 516.324219 182.648438 518.03125 185.34375 519.671875 188.082031 C 521.3125 190.820312 522.886719 193.59375 524.390625 196.410156 C 525.894531 199.222656 527.328125 202.074219 528.691406 204.957031 C 530.054688 207.84375 531.347656 210.757812 532.570312 213.707031 C 533.789062 216.65625 534.9375 219.632812 536.011719 222.636719 C 537.085938 225.640625 538.089844 228.671875 539.015625 231.726562 C 539.941406 234.777344 540.792969 237.855469 541.566406 240.949219 C 542.339844 244.042969 543.039062 247.15625 543.664062 250.289062 C 544.285156 253.417969 544.832031 256.5625 545.300781 259.71875 C 545.765625 262.875 546.15625 266.039062 546.46875 269.214844 C 546.78125 272.390625 547.019531 275.574219 547.175781 278.761719 C 547.332031 281.949219 547.410156 285.136719 547.410156 288.328125 Z M 547.410156 288.328125 "/><path style=" stroke:none;fill-rule:nonzero;fill:#ffffff;fill-opacity:1;" d="M 327.421875 224.628906 L 319.835938 192.59375 C 319.617188 191.679688 319.355469 190.78125 319.042969 189.898438 C 318.734375 189.011719 318.378906 188.148438 317.976562 187.300781 C 317.574219 186.453125 317.128906 185.628906 316.640625 184.828125 C 316.152344 184.03125 315.625 183.257812 315.054688 182.511719 C 314.484375 181.769531 313.875 181.058594 313.230469 180.375 C 312.585938 179.695312 311.90625 179.050781 311.195312 178.441406 C 310.484375 177.835938 309.738281 177.265625 308.96875 176.734375 C 308.195312 176.203125 307.394531 175.714844 306.570312 175.269531 C 305.746094 174.824219 304.902344 174.421875 304.035156 174.0625 C 303.167969 173.707031 302.285156 173.394531 301.386719 173.132812 C 300.488281 172.867188 299.578125 172.648438 298.65625 172.480469 C 297.734375 172.3125 296.804688 172.195312 295.871094 172.125 C 294.9375 172.054688 294 172.03125 293.0625 172.058594 C 292.128906 172.085938 291.195312 172.164062 290.265625 172.292969 C 289.335938 172.417969 288.417969 172.59375 287.507812 172.816406 C 286.597656 173.039062 285.699219 173.308594 284.820312 173.625 L 267.324219 179.925781 C 265.90625 180.4375 264.546875 181.0625 263.234375 181.804688 C 261.925781 182.542969 260.6875 183.390625 259.523438 184.339844 C 258.355469 185.289062 257.277344 186.328125 256.285156 187.460938 C 255.296875 188.59375 254.40625 189.800781 253.621094 191.082031 C 252.832031 192.363281 252.160156 193.703125 251.597656 195.097656 C 251.035156 196.496094 250.597656 197.929688 250.277344 199.398438 C 249.960938 200.871094 249.765625 202.355469 249.699219 203.859375 C 249.632812 205.363281 249.691406 206.859375 249.875 208.351562 C 255.972656 257.90625 284.039062 377.78125 413.121094 404.121094 C 414.398438 404.378906 415.683594 404.546875 416.980469 404.617188 C 418.28125 404.691406 419.574219 404.667969 420.871094 404.550781 C 422.167969 404.433594 423.445312 404.222656 424.710938 403.917969 C 425.972656 403.617188 427.210938 403.222656 428.417969 402.738281 C 429.625 402.253906 430.789062 401.683594 431.914062 401.027344 C 433.035156 400.375 434.105469 399.640625 435.121094 398.828125 C 436.140625 398.019531 437.089844 397.136719 437.980469 396.1875 C 438.867188 395.238281 439.679688 394.226562 440.421875 393.15625 L 450.464844 378.648438 C 450.960938 377.925781 451.421875 377.1875 451.847656 376.421875 C 452.273438 375.65625 452.660156 374.875 453.007812 374.070312 C 453.355469 373.269531 453.660156 372.453125 453.929688 371.621094 C 454.195312 370.789062 454.421875 369.945312 454.605469 369.089844 C 454.792969 368.234375 454.933594 367.375 455.035156 366.503906 C 455.132812 365.636719 455.191406 364.765625 455.207031 363.890625 C 455.21875 363.015625 455.191406 362.144531 455.121094 361.273438 C 455.050781 360.398438 454.933594 359.535156 454.777344 358.675781 C 454.621094 357.8125 454.425781 356.964844 454.183594 356.121094 C 453.945312 355.28125 453.664062 354.453125 453.34375 353.640625 C 453.023438 352.828125 452.660156 352.03125 452.261719 351.253906 C 451.863281 350.476562 451.425781 349.71875 450.953125 348.984375 C 450.480469 348.25 449.96875 347.539062 449.425781 346.855469 C 448.882812 346.171875 448.308594 345.515625 447.699219 344.886719 C 447.09375 344.257812 446.457031 343.660156 445.789062 343.09375 C 445.121094 342.527344 444.429688 341.996094 443.710938 341.5 L 443.539062 341.382812 L 421.472656 326.351562 C 420.285156 325.542969 419.039062 324.835938 417.738281 324.230469 C 416.4375 323.621094 415.097656 323.121094 413.714844 322.730469 C 412.332031 322.339844 410.929688 322.0625 409.503906 321.898438 C 408.078125 321.734375 406.644531 321.683594 405.210938 321.75 C 403.777344 321.820312 402.359375 322 400.953125 322.296875 C 399.546875 322.589844 398.175781 322.996094 396.835938 323.515625 C 395.496094 324.03125 394.207031 324.652344 392.96875 325.378906 C 391.730469 326.101562 390.554688 326.921875 389.449219 327.839844 C 388.347656 328.75 387.183594 329.566406 385.953125 330.289062 C 384.722656 331.011719 383.445312 331.632812 382.113281 332.148438 C 380.785156 332.667969 379.421875 333.074219 378.023438 333.375 C 376.628906 333.671875 375.21875 333.859375 373.792969 333.929688 C 372.367188 334 370.945312 333.960938 369.527344 333.804688 C 368.109375 333.644531 366.710938 333.378906 365.335938 332.996094 C 363.960938 332.613281 362.625 332.125 361.328125 331.53125 C 360.03125 330.933594 358.789062 330.238281 357.605469 329.441406 C 344.179688 320.394531 326.007812 305.394531 314.207031 284.597656 C 313.542969 283.4375 312.972656 282.234375 312.492188 280.992188 C 312.007812 279.746094 311.625 278.472656 311.332031 277.167969 C 311.039062 275.867188 310.847656 274.550781 310.753906 273.21875 C 310.660156 271.886719 310.664062 270.554688 310.769531 269.222656 C 310.875 267.894531 311.078125 266.578125 311.378906 265.277344 C 311.679688 263.976562 312.078125 262.707031 312.570312 261.464844 C 313.058594 260.222656 313.640625 259.027344 314.3125 257.871094 C 314.980469 256.71875 315.734375 255.621094 316.570312 254.578125 L 322.25 247.519531 C 323.523438 245.933594 324.601562 244.226562 325.484375 242.394531 C 326.371094 240.566406 327.035156 238.65625 327.484375 236.675781 C 327.933594 234.691406 328.152344 232.683594 328.140625 230.648438 C 328.128906 228.617188 327.890625 226.609375 327.421875 224.628906 Z M 327.421875 224.628906 "/></g></svg>