<svg xmlns="http://www.w3.org/2000/svg" xmlns:xlink="http://www.w3.org/1999/xlink" width="940" zoomAndPan="magnify" viewBox="0 0 705 591.000005" height="788" preserveAspectRatio="xMidYMid meet" version="1.2"><defs><clipPath id="405c1391df"><path d="M 44 67.367188 L 660.800781 67.367188 L 660.800781 522.597656 L 44 522.597656 Z M 44 67.367188 "/></clipPath></defs><g id="24c15a54d5"><g clip-rule="nonzero" clip-path="url(#405c1391df)"><path style=" stroke:none;fill-rule:nonzero;fill:#000000;fill-opacity:1;" d="M 146.835938 67.371094 C 90.300781 67.371094 44.09375 113.597656 44.09375 170.164062 L 44.09375 419.804688 C 44.09375 476.371094 90.300781 522.601562 146.835938 522.601562 L 557.808594 522.601562 C 614.347656 522.601562 660.554688 476.371094 660.554688 419.804688 L 660.554688 170.164062 C 660.554688 113.597656 614.347656 67.371094 557.808594 67.371094 Z M 146.835938 111.425781 L 557.808594 111.425781 C 590.714844 111.425781 616.519531 137.242188 616.519531 170.164062 L 616.519531 419.804688 C 616.519531 452.726562 590.714844 478.546875 557.808594 478.546875 L 146.835938 478.546875 C 113.929688 478.546875 88.125 452.726562 88.125 419.804688 L 88.125 170.164062 C 88.125 137.242188 113.929688 111.425781 146.835938 111.425781 Z M 301.640625 177.507812 C 300.90625 177.484375 300.171875 177.496094 299.4375 177.546875 C 298.703125 177.597656 297.972656 177.6875 297.25 177.8125 C 296.523438 177.933594 295.804688 178.09375 295.097656 178.289062 C 294.386719 178.484375 293.691406 178.714844 293.003906 178.980469 C 292.316406 179.25 291.648438 179.546875 290.992188 179.882812 C 290.335938 180.214844 289.699219 180.578125 289.078125 180.976562 C 288.457031 181.371094 287.859375 181.800781 287.285156 182.257812 C 286.707031 182.714844 286.15625 183.199219 285.625 183.710938 C 285.097656 184.222656 284.597656 184.761719 284.121094 185.324219 C 283.648438 185.886719 283.203125 186.472656 282.789062 187.078125 C 282.371094 187.683594 281.988281 188.3125 281.636719 188.957031 C 281.28125 189.605469 280.960938 190.265625 280.675781 190.941406 C 280.390625 191.621094 280.136719 192.3125 279.917969 193.015625 C 279.703125 193.71875 279.519531 194.429688 279.375 195.152344 C 279.226562 195.871094 279.117188 196.597656 279.046875 197.332031 C 278.972656 198.0625 278.933594 198.796875 278.9375 199.535156 L 278.9375 390.4375 C 278.933594 391.113281 278.960938 391.789062 279.019531 392.460938 C 279.078125 393.132812 279.164062 393.804688 279.285156 394.46875 C 279.40625 395.132812 279.554688 395.792969 279.738281 396.441406 C 279.917969 397.09375 280.128906 397.734375 280.367188 398.367188 C 280.605469 399 280.875 399.621094 281.171875 400.226562 C 281.46875 400.835938 281.792969 401.425781 282.144531 402.003906 C 282.492188 402.582031 282.871094 403.140625 283.273438 403.683594 C 283.675781 404.226562 284.101562 404.75 284.554688 405.253906 C 285.003906 405.757812 285.476562 406.238281 285.972656 406.699219 C 286.46875 407.160156 286.984375 407.59375 287.519531 408.007812 C 288.054688 408.421875 288.605469 408.808594 289.175781 409.167969 C 289.746094 409.53125 290.335938 409.863281 290.9375 410.171875 C 291.539062 410.480469 292.152344 410.757812 292.777344 411.007812 C 293.40625 411.261719 294.042969 411.480469 294.691406 411.671875 C 295.339844 411.867188 295.996094 412.027344 296.65625 412.160156 C 297.320312 412.292969 297.988281 412.394531 298.660156 412.464844 C 300.878906 412.703125 303.082031 412.609375 305.273438 412.179688 C 307.460938 411.75 309.539062 411 311.5 409.9375 L 487.632812 314.488281 C 488.503906 314.019531 489.339844 313.492188 490.136719 312.910156 C 490.9375 312.328125 491.695312 311.695312 492.40625 311.011719 C 493.121094 310.328125 493.789062 309.597656 494.402344 308.824219 C 495.019531 308.050781 495.582031 307.238281 496.085938 306.390625 C 496.59375 305.539062 497.042969 304.660156 497.429688 303.75 C 497.816406 302.839844 498.144531 301.910156 498.40625 300.957031 C 498.667969 300 498.867188 299.035156 499 298.054688 C 499.132812 297.074219 499.199219 296.089844 499.199219 295.101562 C 499.199219 294.109375 499.132812 293.125 499 292.144531 C 498.867188 291.164062 498.667969 290.199219 498.40625 289.246094 C 498.144531 288.289062 497.816406 287.359375 497.429688 286.449219 C 497.042969 285.539062 496.59375 284.660156 496.085938 283.808594 C 495.582031 282.960938 495.019531 282.148438 494.402344 281.375 C 493.789062 280.601562 493.121094 279.871094 492.40625 279.1875 C 491.695312 278.503906 490.9375 277.871094 490.136719 277.289062 C 489.339844 276.707031 488.503906 276.179688 487.632812 275.710938 L 311.5 180.257812 C 308.433594 178.554688 305.148438 177.636719 301.640625 177.507812 Z M 322.96875 236.703125 L 430.757812 294.984375 L 322.96875 353.496094 Z M 322.96875 236.703125 "/></g></g></svg>